<?xml version="1.0" encoding="UTF-8" standalone="no"?>
<!DOCTYPE svg PUBLIC "-//W3C//DTD SVG 1.1//EN"
 "http://www.w3.org/Graphics/SVG/1.1/DTD/svg11.dtd">
<!-- Generated by graphviz version 13.1.0 (20250701.0955)
 -->
<!-- Title: src/driver_ds3231.h Pages: 1 -->
<svg width="986pt" height="232pt"
 viewBox="0.00 0.00 986.00 232.00" xmlns="http://www.w3.org/2000/svg" xmlns:xlink="http://www.w3.org/1999/xlink">
<g id="graph0" class="graph" transform="scale(1 1) rotate(0) translate(4 228)">
<title>src/driver_ds3231.h</title>
<!-- Node1 -->
<g id="Node000001" class="node">
<title>Node1</title>
<g id="a_Node000001"><a xlink:title="driver ds3231 header file">
<polygon fill="#999999" stroke="#666666" points="639,-224 537.5,-224 537.5,-204 639,-204 639,-224"/>
<text xml:space="preserve" text-anchor="middle" x="588.25" y="-210.5" font-family="Helvetica,sans-Serif" font-size="10.00">src/driver_ds3231.h</text>
</a>
</g>
</g>
<!-- Node2 -->
<g id="Node000002" class="node">
<title>Node2</title>
<g id="a_Node000002"><a xlink:href="driver__ds3231__interface_8h.html" target="_top" xlink:title="driver ds3231 interface header file">
<polygon fill="white" stroke="#666666" points="583.88,-168 466.62,-168 466.62,-136 583.88,-136 583.88,-168"/>
<text xml:space="preserve" text-anchor="start" x="474.62" y="-154.5" font-family="Helvetica,sans-Serif" font-size="10.00">interface/driver_ds3231</text>
<text xml:space="preserve" text-anchor="middle" x="525.25" y="-142.5" font-family="Helvetica,sans-Serif" font-size="10.00">_interface.h</text>
</a>
</g>
</g>
<!-- Node1&#45;&gt;Node2 -->
<g id="edge1_Node000001_Node000002" class="edge">
<title>Node1&#45;&gt;Node2</title>
<g id="a_edge1_Node000001_Node000002"><a xlink:title=" ">
<path fill="none" stroke="#63b8ff" d="M570.31,-195.92C561.12,-187.16 550.03,-176.6 541.15,-168.14"/>
<polygon fill="#63b8ff" stroke="#63b8ff" points="567.66,-198.22 577.31,-202.58 572.48,-193.15 567.66,-198.22"/>
</a>
</g>
</g>
<!-- Node18 -->
<g id="Node000018" class="node">
<title>Node18</title>
<g id="a_Node000018"><a xlink:href="driver__ds3231_8c.html" target="_top" xlink:title="driver ds3231 source file">
<polygon fill="white" stroke="#666666" points="703,-162 601.5,-162 601.5,-142 703,-142 703,-162"/>
<text xml:space="preserve" text-anchor="middle" x="652.25" y="-148.5" font-family="Helvetica,sans-Serif" font-size="10.00">src/driver_ds3231.c</text>
</a>
</g>
</g>
<!-- Node1&#45;&gt;Node18 -->
<g id="edge17_Node000001_Node000018" class="edge">
<title>Node1&#45;&gt;Node18</title>
<g id="a_edge17_Node000001_Node000018"><a xlink:title=" ">
<path fill="none" stroke="#63b8ff" d="M606.49,-195.9C618.22,-184.91 632.99,-171.05 642.53,-162.11"/>
<polygon fill="#63b8ff" stroke="#63b8ff" points="604.26,-193.2 599.35,-202.59 609.04,-198.3 604.26,-193.2"/>
</a>
</g>
</g>
<!-- Node3 -->
<g id="Node000003" class="node">
<title>Node3</title>
<g id="a_Node000003"><a xlink:href="driver__ds3231__alarm_8h.html" target="_top" xlink:title="driver ds3231 alarm header file">
<polygon fill="white" stroke="#666666" points="116.5,-100 0,-100 0,-68 116.5,-68 116.5,-100"/>
<text xml:space="preserve" text-anchor="start" x="8" y="-86.5" font-family="Helvetica,sans-Serif" font-size="10.00">example/driver_ds3231</text>
<text xml:space="preserve" text-anchor="middle" x="58.25" y="-74.5" font-family="Helvetica,sans-Serif" font-size="10.00">_alarm.h</text>
</a>
</g>
</g>
<!-- Node2&#45;&gt;Node3 -->
<g id="edge2_Node000002_Node000003" class="edge">
<title>Node2&#45;&gt;Node3</title>
<g id="a_edge2_Node000002_Node000003"><a xlink:title=" ">
<path fill="none" stroke="#63b8ff" d="M454.79,-143.93C374.84,-135.46 240.68,-119.89 126.25,-100 123.15,-99.46 119.98,-98.88 116.79,-98.26"/>
<polygon fill="#63b8ff" stroke="#63b8ff" points="454.37,-147.41 464.68,-144.97 455.1,-140.45 454.37,-147.41"/>
</a>
</g>
</g>
<!-- Node5 -->
<g id="Node000005" class="node">
<title>Node5</title>
<g id="a_Node000005"><a xlink:href="driver__ds3231__basic_8h.html" target="_top" xlink:title="driver ds3231 basic header file">
<polygon fill="white" stroke="#666666" points="251.5,-100 135,-100 135,-68 251.5,-68 251.5,-100"/>
<text xml:space="preserve" text-anchor="start" x="143" y="-86.5" font-family="Helvetica,sans-Serif" font-size="10.00">example/driver_ds3231</text>
<text xml:space="preserve" text-anchor="middle" x="193.25" y="-74.5" font-family="Helvetica,sans-Serif" font-size="10.00">_basic.h</text>
</a>
</g>
</g>
<!-- Node2&#45;&gt;Node5 -->
<g id="edge4_Node000002_Node000005" class="edge">
<title>Node2&#45;&gt;Node5</title>
<g id="a_edge4_Node000002_Node000005"><a xlink:title=" ">
<path fill="none" stroke="#63b8ff" d="M455.16,-137.98C401.9,-127.96 326.87,-113.57 261.25,-100 258.17,-99.36 255.02,-98.7 251.83,-98.03"/>
<polygon fill="#63b8ff" stroke="#63b8ff" points="454.22,-141.36 464.69,-139.77 455.51,-134.48 454.22,-141.36"/>
</a>
</g>
</g>
<!-- Node7 -->
<g id="Node000007" class="node">
<title>Node7</title>
<g id="a_Node000007"><a xlink:href="driver__ds3231__output_8h.html" target="_top" xlink:title="driver ds3231 output header file">
<polygon fill="white" stroke="#666666" points="386.5,-100 270,-100 270,-68 386.5,-68 386.5,-100"/>
<text xml:space="preserve" text-anchor="start" x="278" y="-86.5" font-family="Helvetica,sans-Serif" font-size="10.00">example/driver_ds3231</text>
<text xml:space="preserve" text-anchor="middle" x="328.25" y="-74.5" font-family="Helvetica,sans-Serif" font-size="10.00">_output.h</text>
</a>
</g>
</g>
<!-- Node2&#45;&gt;Node7 -->
<g id="edge6_Node000002_Node000007" class="edge">
<title>Node2&#45;&gt;Node7</title>
<g id="a_edge6_Node000002_Node000007"><a xlink:title=" ">
<path fill="none" stroke="#63b8ff" d="M468.39,-131.95C438.59,-121.97 402.56,-109.89 374.49,-100.49"/>
<polygon fill="#63b8ff" stroke="#63b8ff" points="467.03,-135.19 477.63,-135.05 469.26,-128.55 467.03,-135.19"/>
</a>
</g>
</g>
<!-- Node9 -->
<g id="Node000009" class="node">
<title>Node9</title>
<g id="a_Node000009"><a xlink:href="driver__ds3231__interface__template_8c.html" target="_top" xlink:title="driver ds3231 interface template source file">
<polygon fill="white" stroke="#666666" points="521.88,-100 404.62,-100 404.62,-68 521.88,-68 521.88,-100"/>
<text xml:space="preserve" text-anchor="start" x="412.62" y="-86.5" font-family="Helvetica,sans-Serif" font-size="10.00">interface/driver_ds3231</text>
<text xml:space="preserve" text-anchor="middle" x="463.25" y="-74.5" font-family="Helvetica,sans-Serif" font-size="10.00">_interface_template.c</text>
</a>
</g>
</g>
<!-- Node2&#45;&gt;Node9 -->
<g id="edge8_Node000002_Node000009" class="edge">
<title>Node2&#45;&gt;Node9</title>
<g id="a_edge8_Node000002_Node000009"><a xlink:title=" ">
<path fill="none" stroke="#63b8ff" d="M503.11,-127.43C494.6,-118.38 485.13,-108.29 477.55,-100.22"/>
<polygon fill="#63b8ff" stroke="#63b8ff" points="500.44,-129.7 509.83,-134.59 505.54,-124.9 500.44,-129.7"/>
</a>
</g>
</g>
<!-- Node10 -->
<g id="Node000010" class="node">
<title>Node10</title>
<g id="a_Node000010"><a xlink:href="driver__ds3231__alarm__test_8h.html" target="_top" xlink:title="driver ds3231 alarm test header file">
<polygon fill="white" stroke="#666666" points="636.38,-100 540.12,-100 540.12,-68 636.38,-68 636.38,-100"/>
<text xml:space="preserve" text-anchor="start" x="548.12" y="-86.5" font-family="Helvetica,sans-Serif" font-size="10.00">test/driver_ds3231</text>
<text xml:space="preserve" text-anchor="middle" x="588.25" y="-74.5" font-family="Helvetica,sans-Serif" font-size="10.00">_alarm_test.h</text>
</a>
</g>
</g>
<!-- Node2&#45;&gt;Node10 -->
<g id="edge9_Node000002_Node000010" class="edge">
<title>Node2&#45;&gt;Node10</title>
<g id="a_edge9_Node000002_Node000010"><a xlink:title=" ">
<path fill="none" stroke="#63b8ff" d="M547.75,-127.43C556.39,-118.38 566.02,-108.29 573.72,-100.22"/>
<polygon fill="#63b8ff" stroke="#63b8ff" points="545.28,-124.95 540.91,-134.6 550.34,-129.78 545.28,-124.95"/>
</a>
</g>
</g>
<!-- Node12 -->
<g id="Node000012" class="node">
<title>Node12</title>
<g id="a_Node000012"><a xlink:href="driver__ds3231__output__test_8h.html" target="_top" xlink:title="driver ds3231 output test header file">
<polygon fill="white" stroke="#666666" points="750.38,-100 654.12,-100 654.12,-68 750.38,-68 750.38,-100"/>
<text xml:space="preserve" text-anchor="start" x="662.12" y="-86.5" font-family="Helvetica,sans-Serif" font-size="10.00">test/driver_ds3231</text>
<text xml:space="preserve" text-anchor="middle" x="702.25" y="-74.5" font-family="Helvetica,sans-Serif" font-size="10.00">_output_test.h</text>
</a>
</g>
</g>
<!-- Node2&#45;&gt;Node12 -->
<g id="edge11_Node000002_Node000012" class="edge">
<title>Node2&#45;&gt;Node12</title>
<g id="a_edge11_Node000002_Node000012"><a xlink:title=" ">
<path fill="none" stroke="#63b8ff" d="M577.4,-131.56C603.96,-121.65 635.82,-109.77 660.71,-100.49"/>
<polygon fill="#63b8ff" stroke="#63b8ff" points="576.31,-128.22 568.17,-135 578.76,-134.78 576.31,-128.22"/>
</a>
</g>
</g>
<!-- Node14 -->
<g id="Node000014" class="node">
<title>Node14</title>
<g id="a_Node000014"><a xlink:href="driver__ds3231__readwrite__test_8h.html" target="_top" xlink:title="driver ds3231 readwrite test header file">
<polygon fill="white" stroke="#666666" points="864.38,-100 768.12,-100 768.12,-68 864.38,-68 864.38,-100"/>
<text xml:space="preserve" text-anchor="start" x="776.12" y="-86.5" font-family="Helvetica,sans-Serif" font-size="10.00">test/driver_ds3231</text>
<text xml:space="preserve" text-anchor="middle" x="816.25" y="-74.5" font-family="Helvetica,sans-Serif" font-size="10.00">_readwrite_test.h</text>
</a>
</g>
</g>
<!-- Node2&#45;&gt;Node14 -->
<g id="edge13_Node000002_Node000014" class="edge">
<title>Node2&#45;&gt;Node14</title>
<g id="a_edge13_Node000002_Node000014"><a xlink:title=" ">
<path fill="none" stroke="#63b8ff" d="M595.24,-135.36C668.31,-119.48 688.87,-116.84 759.25,-100 762.04,-99.33 764.9,-98.63 767.78,-97.91"/>
<polygon fill="#63b8ff" stroke="#63b8ff" points="594.57,-131.93 585.55,-137.48 596.07,-138.76 594.57,-131.93"/>
</a>
</g>
</g>
<!-- Node16 -->
<g id="Node000016" class="node">
<title>Node16</title>
<g id="a_Node000016"><a xlink:href="driver__ds3231__register__test_8h.html" target="_top" xlink:title="driver ds3231 register test header file">
<polygon fill="white" stroke="#666666" points="978.38,-100 882.12,-100 882.12,-68 978.38,-68 978.38,-100"/>
<text xml:space="preserve" text-anchor="start" x="890.12" y="-86.5" font-family="Helvetica,sans-Serif" font-size="10.00">test/driver_ds3231</text>
<text xml:space="preserve" text-anchor="middle" x="930.25" y="-74.5" font-family="Helvetica,sans-Serif" font-size="10.00">_register_test.h</text>
</a>
</g>
</g>
<!-- Node2&#45;&gt;Node16 -->
<g id="edge15_Node000002_Node000016" class="edge">
<title>Node2&#45;&gt;Node16</title>
<g id="a_edge15_Node000002_Node000016"><a xlink:title=" ">
<path fill="none" stroke="#63b8ff" d="M595.02,-135.62C718.23,-114.75 753.16,-123.39 873.25,-100 876.06,-99.45 878.94,-98.84 881.84,-98.2"/>
<polygon fill="#63b8ff" stroke="#63b8ff" points="594.76,-132.11 585.51,-137.26 595.96,-139.01 594.76,-132.11"/>
</a>
</g>
</g>
<!-- Node4 -->
<g id="Node000004" class="node">
<title>Node4</title>
<g id="a_Node000004"><a xlink:href="driver__ds3231__alarm_8c.html" target="_top" xlink:title="driver ds3231 alarm source file">
<polygon fill="white" stroke="#666666" points="116.5,-32 0,-32 0,0 116.5,0 116.5,-32"/>
<text xml:space="preserve" text-anchor="start" x="8" y="-18.5" font-family="Helvetica,sans-Serif" font-size="10.00">example/driver_ds3231</text>
<text xml:space="preserve" text-anchor="middle" x="58.25" y="-6.5" font-family="Helvetica,sans-Serif" font-size="10.00">_alarm.c</text>
</a>
</g>
</g>
<!-- Node3&#45;&gt;Node4 -->
<g id="edge3_Node000003_Node000004" class="edge">
<title>Node3&#45;&gt;Node4</title>
<g id="a_edge3_Node000003_Node000004"><a xlink:title=" ">
<path fill="none" stroke="#63b8ff" d="M58.25,-56.31C58.25,-48.12 58.25,-39.38 58.25,-32.22"/>
<polygon fill="#63b8ff" stroke="#63b8ff" points="54.75,-56.18 58.25,-66.18 61.75,-56.18 54.75,-56.18"/>
</a>
</g>
</g>
<!-- Node6 -->
<g id="Node000006" class="node">
<title>Node6</title>
<g id="a_Node000006"><a xlink:href="driver__ds3231__basic_8c.html" target="_top" xlink:title="driver ds3231 basic source file">
<polygon fill="white" stroke="#666666" points="251.5,-32 135,-32 135,0 251.5,0 251.5,-32"/>
<text xml:space="preserve" text-anchor="start" x="143" y="-18.5" font-family="Helvetica,sans-Serif" font-size="10.00">example/driver_ds3231</text>
<text xml:space="preserve" text-anchor="middle" x="193.25" y="-6.5" font-family="Helvetica,sans-Serif" font-size="10.00">_basic.c</text>
</a>
</g>
</g>
<!-- Node5&#45;&gt;Node6 -->
<g id="edge5_Node000005_Node000006" class="edge">
<title>Node5&#45;&gt;Node6</title>
<g id="a_edge5_Node000005_Node000006"><a xlink:title=" ">
<path fill="none" stroke="#63b8ff" d="M193.25,-56.31C193.25,-48.12 193.25,-39.38 193.25,-32.22"/>
<polygon fill="#63b8ff" stroke="#63b8ff" points="189.75,-56.18 193.25,-66.18 196.75,-56.18 189.75,-56.18"/>
</a>
</g>
</g>
<!-- Node8 -->
<g id="Node000008" class="node">
<title>Node8</title>
<g id="a_Node000008"><a xlink:href="driver__ds3231__output_8c.html" target="_top" xlink:title="driver ds3231 output source file">
<polygon fill="white" stroke="#666666" points="386.5,-32 270,-32 270,0 386.5,0 386.5,-32"/>
<text xml:space="preserve" text-anchor="start" x="278" y="-18.5" font-family="Helvetica,sans-Serif" font-size="10.00">example/driver_ds3231</text>
<text xml:space="preserve" text-anchor="middle" x="328.25" y="-6.5" font-family="Helvetica,sans-Serif" font-size="10.00">_output.c</text>
</a>
</g>
</g>
<!-- Node7&#45;&gt;Node8 -->
<g id="edge7_Node000007_Node000008" class="edge">
<title>Node7&#45;&gt;Node8</title>
<g id="a_edge7_Node000007_Node000008"><a xlink:title=" ">
<path fill="none" stroke="#63b8ff" d="M328.25,-56.31C328.25,-48.12 328.25,-39.38 328.25,-32.22"/>
<polygon fill="#63b8ff" stroke="#63b8ff" points="324.75,-56.18 328.25,-66.18 331.75,-56.18 324.75,-56.18"/>
</a>
</g>
</g>
<!-- Node11 -->
<g id="Node000011" class="node">
<title>Node11</title>
<g id="a_Node000011"><a xlink:href="driver__ds3231__alarm__test_8c.html" target="_top" xlink:title="driver ds3231 alarm test source file">
<polygon fill="white" stroke="#666666" points="636.38,-32 540.12,-32 540.12,0 636.38,0 636.38,-32"/>
<text xml:space="preserve" text-anchor="start" x="548.12" y="-18.5" font-family="Helvetica,sans-Serif" font-size="10.00">test/driver_ds3231</text>
<text xml:space="preserve" text-anchor="middle" x="588.25" y="-6.5" font-family="Helvetica,sans-Serif" font-size="10.00">_alarm_test.c</text>
</a>
</g>
</g>
<!-- Node10&#45;&gt;Node11 -->
<g id="edge10_Node000010_Node000011" class="edge">
<title>Node10&#45;&gt;Node11</title>
<g id="a_edge10_Node000010_Node000011"><a xlink:title=" ">
<path fill="none" stroke="#63b8ff" d="M588.25,-56.31C588.25,-48.12 588.25,-39.38 588.25,-32.22"/>
<polygon fill="#63b8ff" stroke="#63b8ff" points="584.75,-56.18 588.25,-66.18 591.75,-56.18 584.75,-56.18"/>
</a>
</g>
</g>
<!-- Node13 -->
<g id="Node000013" class="node">
<title>Node13</title>
<g id="a_Node000013"><a xlink:href="driver__ds3231__output__test_8c.html" target="_top" xlink:title="driver ds3231 output test source file">
<polygon fill="white" stroke="#666666" points="750.38,-32 654.12,-32 654.12,0 750.38,0 750.38,-32"/>
<text xml:space="preserve" text-anchor="start" x="662.12" y="-18.5" font-family="Helvetica,sans-Serif" font-size="10.00">test/driver_ds3231</text>
<text xml:space="preserve" text-anchor="middle" x="702.25" y="-6.5" font-family="Helvetica,sans-Serif" font-size="10.00">_output_test.c</text>
</a>
</g>
</g>
<!-- Node12&#45;&gt;Node13 -->
<g id="edge12_Node000012_Node000013" class="edge">
<title>Node12&#45;&gt;Node13</title>
<g id="a_edge12_Node000012_Node000013"><a xlink:title=" ">
<path fill="none" stroke="#63b8ff" d="M702.25,-56.31C702.25,-48.12 702.25,-39.38 702.25,-32.22"/>
<polygon fill="#63b8ff" stroke="#63b8ff" points="698.75,-56.18 702.25,-66.18 705.75,-56.18 698.75,-56.18"/>
</a>
</g>
</g>
<!-- Node15 -->
<g id="Node000015" class="node">
<title>Node15</title>
<g id="a_Node000015"><a xlink:href="driver__ds3231__readwrite__test_8c.html" target="_top" xlink:title="driver ds3231 readwrite test source file">
<polygon fill="white" stroke="#666666" points="864.38,-32 768.12,-32 768.12,0 864.38,0 864.38,-32"/>
<text xml:space="preserve" text-anchor="start" x="776.12" y="-18.5" font-family="Helvetica,sans-Serif" font-size="10.00">test/driver_ds3231</text>
<text xml:space="preserve" text-anchor="middle" x="816.25" y="-6.5" font-family="Helvetica,sans-Serif" font-size="10.00">_readwrite_test.c</text>
</a>
</g>
</g>
<!-- Node14&#45;&gt;Node15 -->
<g id="edge14_Node000014_Node000015" class="edge">
<title>Node14&#45;&gt;Node15</title>
<g id="a_edge14_Node000014_Node000015"><a xlink:title=" ">
<path fill="none" stroke="#63b8ff" d="M816.25,-56.31C816.25,-48.12 816.25,-39.38 816.25,-32.22"/>
<polygon fill="#63b8ff" stroke="#63b8ff" points="812.75,-56.18 816.25,-66.18 819.75,-56.18 812.75,-56.18"/>
</a>
</g>
</g>
<!-- Node17 -->
<g id="Node000017" class="node">
<title>Node17</title>
<g id="a_Node000017"><a xlink:href="driver__ds3231__register__test_8c.html" target="_top" xlink:title="driver ds3231 register test source file">
<polygon fill="white" stroke="#666666" points="978.38,-32 882.12,-32 882.12,0 978.38,0 978.38,-32"/>
<text xml:space="preserve" text-anchor="start" x="890.12" y="-18.5" font-family="Helvetica,sans-Serif" font-size="10.00">test/driver_ds3231</text>
<text xml:space="preserve" text-anchor="middle" x="930.25" y="-6.5" font-family="Helvetica,sans-Serif" font-size="10.00">_register_test.c</text>
</a>
</g>
</g>
<!-- Node16&#45;&gt;Node17 -->
<g id="edge16_Node000016_Node000017" class="edge">
<title>Node16&#45;&gt;Node17</title>
<g id="a_edge16_Node000016_Node000017"><a xlink:title=" ">
<path fill="none" stroke="#63b8ff" d="M930.25,-56.31C930.25,-48.12 930.25,-39.38 930.25,-32.22"/>
<polygon fill="#63b8ff" stroke="#63b8ff" points="926.75,-56.18 930.25,-66.18 933.75,-56.18 926.75,-56.18"/>
</a>
</g>
</g>
</g>
</svg>
