<?xml version="1.0" encoding="UTF-8" standalone="no"?>
<!DOCTYPE svg PUBLIC "-//W3C//DTD SVG 1.1//EN"
 "http://www.w3.org/Graphics/SVG/1.1/DTD/svg11.dtd">
<!-- Generated by graphviz version 13.1.0 (20250701.0955)
 -->
<!-- Title: ds3231_output_test Pages: 1 -->
<svg width="441pt" height="684pt"
 viewBox="0.00 0.00 441.00 684.00" xmlns="http://www.w3.org/2000/svg" xmlns:xlink="http://www.w3.org/1999/xlink">
<g id="graph0" class="graph" transform="scale(1 1) rotate(0) translate(4 680)">
<title>ds3231_output_test</title>
<!-- Node1 -->
<g id="Node000001" class="node">
<title>Node1</title>
<g id="a_Node000001"><a xlink:title="output test">
<polygon fill="#999999" stroke="#666666" points="101.5,-348 0,-348 0,-328 101.5,-328 101.5,-348"/>
<text xml:space="preserve" text-anchor="middle" x="50.75" y="-334.5" font-family="Helvetica,sans-Serif" font-size="10.00">ds3231_output_test</text>
</a>
</g>
</g>
<!-- Node2 -->
<g id="Node000002" class="node">
<title>Node2</title>
<g id="a_Node000002"><a xlink:href="group__ds3231__advance__driver.html#gacf71c847b348df46bd1fcd2a122d1855" target="_top" xlink:title="convert a aging offset value to a register raw data">
<polygon fill="white" stroke="#666666" points="258.88,-676 153.62,-676 153.62,-644 258.88,-644 258.88,-676"/>
<text xml:space="preserve" text-anchor="start" x="161.62" y="-662.5" font-family="Helvetica,sans-Serif" font-size="10.00">ds3231_aging_offset</text>
<text xml:space="preserve" text-anchor="middle" x="206.25" y="-650.5" font-family="Helvetica,sans-Serif" font-size="10.00">_convert_to_register</text>
</a>
</g>
</g>
<!-- Node1&#45;&gt;Node2 -->
<g id="edge1_Node000001_Node000002" class="edge">
<title>Node1&#45;&gt;Node2</title>
<g id="a_edge1_Node000001_Node000002"><a xlink:title=" ">
<path fill="none" stroke="#63b8ff" d="M51.59,-348.27C51.51,-389.91 56.72,-548.15 137.5,-635 139.44,-637.09 141.57,-639 143.85,-640.76"/>
<polygon fill="#63b8ff" stroke="#63b8ff" points="141.63,-643.49 151.94,-645.95 145.41,-637.6 141.63,-643.49"/>
</a>
</g>
</g>
<!-- Node3 -->
<g id="Node000003" class="node">
<title>Node3</title>
<g id="a_Node000003"><a xlink:href="group__ds3231__base__driver.html#gadd1988301d419380a0d6bdf769233ca0" target="_top" xlink:title="close the chip">
<polygon fill="white" stroke="#666666" points="244.25,-626 168.25,-626 168.25,-606 244.25,-606 244.25,-626"/>
<text xml:space="preserve" text-anchor="middle" x="206.25" y="-612.5" font-family="Helvetica,sans-Serif" font-size="10.00">ds3231_deinit</text>
</a>
</g>
</g>
<!-- Node1&#45;&gt;Node3 -->
<g id="edge2_Node000001_Node000003" class="edge">
<title>Node1&#45;&gt;Node3</title>
<g id="a_edge2_Node000001_Node000003"><a xlink:title=" ">
<path fill="none" stroke="#63b8ff" d="M51.91,-348.44C53.1,-387.38 62.64,-525.53 137.5,-597 142.96,-602.21 149.72,-606.01 156.85,-608.78"/>
<polygon fill="#63b8ff" stroke="#63b8ff" points="155.79,-612.12 166.38,-611.79 157.89,-605.44 155.79,-612.12"/>
</a>
</g>
</g>
<!-- Node4 -->
<g id="Node000004" class="node">
<title>Node4</title>
<g id="a_Node000004"><a xlink:href="group__ds3231__base__driver.html#ga345a8eeaa00e23e1387408d4e0a5948f" target="_top" xlink:title="get chip&#39;s information">
<polygon fill="white" stroke="#666666" points="240.5,-588 172,-588 172,-568 240.5,-568 240.5,-588"/>
<text xml:space="preserve" text-anchor="middle" x="206.25" y="-574.5" font-family="Helvetica,sans-Serif" font-size="10.00">ds3231_info</text>
</a>
</g>
</g>
<!-- Node1&#45;&gt;Node4 -->
<g id="edge3_Node000001_Node000004" class="edge">
<title>Node1&#45;&gt;Node4</title>
<g id="a_edge3_Node000001_Node000004"><a xlink:title=" ">
<path fill="none" stroke="#63b8ff" d="M52.56,-348.12C55.88,-383 71.68,-499.25 137.5,-559 143.98,-564.88 152.13,-568.96 160.52,-571.78"/>
<polygon fill="#63b8ff" stroke="#63b8ff" points="159.53,-575.14 170.1,-574.41 161.39,-568.39 159.53,-575.14"/>
</a>
</g>
</g>
<!-- Node5 -->
<g id="Node000005" class="node">
<title>Node5</title>
<g id="a_Node000005"><a xlink:href="group__ds3231__base__driver.html#gaaba87dc05cadec0df3dc0b914596f52f" target="_top" xlink:title="initialize the chip">
<polygon fill="white" stroke="#666666" points="239,-550 173.5,-550 173.5,-530 239,-530 239,-550"/>
<text xml:space="preserve" text-anchor="middle" x="206.25" y="-536.5" font-family="Helvetica,sans-Serif" font-size="10.00">ds3231_init</text>
</a>
</g>
</g>
<!-- Node1&#45;&gt;Node5 -->
<g id="edge4_Node000001_Node000005" class="edge">
<title>Node1&#45;&gt;Node5</title>
<g id="a_edge4_Node000001_Node000005"><a xlink:title=" ">
<path fill="none" stroke="#63b8ff" d="M53.77,-348.09C60.31,-378.09 83.62,-467.67 137.5,-516 144.57,-522.34 153.42,-527.03 162.36,-530.49"/>
<polygon fill="#63b8ff" stroke="#63b8ff" points="161.19,-533.79 171.78,-533.65 163.41,-527.15 161.19,-533.79"/>
</a>
</g>
</g>
<!-- Node6 -->
<g id="Node000006" class="node">
<title>Node6</title>
<g id="a_Node000006"><a xlink:href="group__ds3231__interface__driver.html#gaa6eb4e12fee76239c8c2a30805596d0b" target="_top" xlink:title="interface print format data">
<polygon fill="white" stroke="#666666" points="432.75,-389 311,-389 311,-357 432.75,-357 432.75,-389"/>
<text xml:space="preserve" text-anchor="start" x="319" y="-375.5" font-family="Helvetica,sans-Serif" font-size="10.00">ds3231_interface_debug</text>
<text xml:space="preserve" text-anchor="middle" x="371.88" y="-363.5" font-family="Helvetica,sans-Serif" font-size="10.00">_print</text>
</a>
</g>
</g>
<!-- Node1&#45;&gt;Node6 -->
<g id="edge5_Node000001_Node000006" class="edge">
<title>Node1&#45;&gt;Node6</title>
<g id="a_edge5_Node000001_Node000006"><a xlink:title=" ">
<path fill="none" stroke="#63b8ff" d="M54.09,-348.2C61.08,-375.97 84.66,-452.86 137.5,-483 190.58,-513.28 219.37,-508.31 275,-483 312.66,-465.87 341.29,-425.82 357.08,-399.08"/>
<polygon fill="#63b8ff" stroke="#63b8ff" points="360.04,-400.95 361.94,-390.53 353.96,-397.5 360.04,-400.95"/>
</a>
</g>
</g>
<!-- Node7 -->
<g id="Node000007" class="node">
<title>Node7</title>
<g id="a_Node000007"><a xlink:href="group__ds3231__interface__driver.html#ga5f66d3dfa38b1dfa607cb447c6cca9fb" target="_top" xlink:title="interface delay ms">
<polygon fill="white" stroke="#666666" points="275,-474 137.5,-474 137.5,-454 275,-454 275,-474"/>
<text xml:space="preserve" text-anchor="middle" x="206.25" y="-460.5" font-family="Helvetica,sans-Serif" font-size="10.00">ds3231_interface_delay_ms</text>
</a>
</g>
</g>
<!-- Node1&#45;&gt;Node7 -->
<g id="edge6_Node000001_Node000007" class="edge">
<title>Node1&#45;&gt;Node7</title>
<g id="a_edge6_Node000001_Node000007"><a xlink:title=" ">
<path fill="none" stroke="#63b8ff" d="M57.08,-348.31C68.69,-369.71 98.38,-419.13 137.5,-445 139.61,-446.4 141.82,-447.69 144.11,-448.89"/>
<polygon fill="#63b8ff" stroke="#63b8ff" points="142.56,-452.03 153.11,-452.95 145.43,-445.65 142.56,-452.03"/>
</a>
</g>
</g>
<!-- Node8 -->
<g id="Node000008" class="node">
<title>Node8</title>
<g id="a_Node000008"><a xlink:href="group__ds3231__interface__driver.html#ga47398c613ac3a7b942a41548f288df97" target="_top" xlink:title="interface iic bus deinit">
<polygon fill="white" stroke="#666666" points="258.88,-436 153.62,-436 153.62,-404 258.88,-404 258.88,-436"/>
<text xml:space="preserve" text-anchor="start" x="161.62" y="-422.5" font-family="Helvetica,sans-Serif" font-size="10.00">ds3231_interface_iic</text>
<text xml:space="preserve" text-anchor="middle" x="206.25" y="-410.5" font-family="Helvetica,sans-Serif" font-size="10.00">_deinit</text>
</a>
</g>
</g>
<!-- Node1&#45;&gt;Node8 -->
<g id="edge7_Node000001_Node000008" class="edge">
<title>Node1&#45;&gt;Node8</title>
<g id="a_edge7_Node000001_Node000008"><a xlink:title=" ">
<path fill="none" stroke="#63b8ff" d="M65.11,-348.32C81.48,-360.62 110.41,-381.23 137.5,-395 140.33,-396.44 143.26,-397.84 146.25,-399.19"/>
<polygon fill="#63b8ff" stroke="#63b8ff" points="144.58,-402.28 155.15,-403 147.34,-395.85 144.58,-402.28"/>
</a>
</g>
</g>
<!-- Node9 -->
<g id="Node000009" class="node">
<title>Node9</title>
<g id="a_Node000009"><a xlink:href="group__ds3231__interface__driver.html#ga40312ed827d6f51b6552290da96fb6b3" target="_top" xlink:title="interface iic bus init">
<polygon fill="white" stroke="#666666" points="267.88,-386 144.62,-386 144.62,-366 267.88,-366 267.88,-386"/>
<text xml:space="preserve" text-anchor="middle" x="206.25" y="-372.5" font-family="Helvetica,sans-Serif" font-size="10.00">ds3231_interface_iic_init</text>
</a>
</g>
</g>
<!-- Node1&#45;&gt;Node9 -->
<g id="edge8_Node000001_Node000009" class="edge">
<title>Node1&#45;&gt;Node9</title>
<g id="a_edge8_Node000001_Node000009"><a xlink:title=" ">
<path fill="none" stroke="#63b8ff" d="M94.1,-348.48C111.97,-352.91 132.97,-358.11 151.88,-362.79"/>
<polygon fill="#63b8ff" stroke="#63b8ff" points="151.02,-366.18 161.57,-365.19 152.7,-359.39 151.02,-366.18"/>
</a>
</g>
</g>
<!-- Node10 -->
<g id="Node000010" class="node">
<title>Node10</title>
<g id="a_Node000010"><a xlink:href="group__ds3231__interface__driver.html#gae5d042241e9b52df7c0ffd76da919c39" target="_top" xlink:title="interface iic bus read">
<polygon fill="white" stroke="#666666" points="270.88,-348 141.62,-348 141.62,-328 270.88,-328 270.88,-348"/>
<text xml:space="preserve" text-anchor="middle" x="206.25" y="-334.5" font-family="Helvetica,sans-Serif" font-size="10.00">ds3231_interface_iic_read</text>
</a>
</g>
</g>
<!-- Node1&#45;&gt;Node10 -->
<g id="edge9_Node000001_Node000010" class="edge">
<title>Node1&#45;&gt;Node10</title>
<g id="a_edge9_Node000001_Node000010"><a xlink:title=" ">
<path fill="none" stroke="#63b8ff" d="M101.59,-338C110.71,-338 120.41,-338 130.09,-338"/>
<polygon fill="#63b8ff" stroke="#63b8ff" points="129.87,-341.5 139.87,-338 129.87,-334.5 129.87,-341.5"/>
</a>
</g>
</g>
<!-- Node11 -->
<g id="Node000011" class="node">
<title>Node11</title>
<g id="a_Node000011"><a xlink:href="group__ds3231__interface__driver.html#ga100951964c5772b71987fe5f29adb9ba" target="_top" xlink:title="interface iic bus write">
<polygon fill="white" stroke="#666666" points="258.88,-310 153.62,-310 153.62,-278 258.88,-278 258.88,-310"/>
<text xml:space="preserve" text-anchor="start" x="161.62" y="-296.5" font-family="Helvetica,sans-Serif" font-size="10.00">ds3231_interface_iic</text>
<text xml:space="preserve" text-anchor="middle" x="206.25" y="-284.5" font-family="Helvetica,sans-Serif" font-size="10.00">_write</text>
</a>
</g>
</g>
<!-- Node1&#45;&gt;Node11 -->
<g id="edge10_Node000001_Node000011" class="edge">
<title>Node1&#45;&gt;Node11</title>
<g id="a_edge10_Node000001_Node000011"><a xlink:title=" ">
<path fill="none" stroke="#63b8ff" d="M88.13,-327.57C104.28,-322.94 123.77,-317.36 142.18,-312.08"/>
<polygon fill="#63b8ff" stroke="#63b8ff" points="143.05,-315.47 151.7,-309.35 141.12,-308.74 143.05,-315.47"/>
</a>
</g>
</g>
<!-- Node12 -->
<g id="Node000012" class="node">
<title>Node12</title>
<g id="a_Node000012"><a xlink:href="group__ds3231__interface__driver.html#gac9d5e54b603ed63e2e7505468d544dae" target="_top" xlink:title="interface receive callback">
<polygon fill="white" stroke="#666666" points="269.75,-260 142.75,-260 142.75,-228 269.75,-228 269.75,-260"/>
<text xml:space="preserve" text-anchor="start" x="150.75" y="-246.5" font-family="Helvetica,sans-Serif" font-size="10.00">ds3231_interface_receive</text>
<text xml:space="preserve" text-anchor="middle" x="206.25" y="-234.5" font-family="Helvetica,sans-Serif" font-size="10.00">_callback</text>
</a>
</g>
</g>
<!-- Node1&#45;&gt;Node12 -->
<g id="edge11_Node000001_Node000012" class="edge">
<title>Node1&#45;&gt;Node12</title>
<g id="a_edge11_Node000001_Node000012"><a xlink:title=" ">
<path fill="none" stroke="#63b8ff" d="M62.28,-327.6C77.67,-312.88 107.74,-285.86 137.5,-269 139.85,-267.67 142.28,-266.39 144.76,-265.15"/>
<polygon fill="#63b8ff" stroke="#63b8ff" points="146.2,-268.34 153.82,-260.99 143.27,-261.98 146.2,-268.34"/>
</a>
</g>
</g>
<!-- Node13 -->
<g id="Node000013" class="node">
<title>Node13</title>
<g id="a_Node000013"><a xlink:href="group__ds3231__advance__driver.html#gad06f018ac2a097830ccf6b60d6fab00d" target="_top" xlink:title="enable or disable the 32KHz output">
<polygon fill="white" stroke="#666666" points="271.25,-210 141.25,-210 141.25,-190 271.25,-190 271.25,-210"/>
<text xml:space="preserve" text-anchor="middle" x="206.25" y="-196.5" font-family="Helvetica,sans-Serif" font-size="10.00">ds3231_set_32khz_output</text>
</a>
</g>
</g>
<!-- Node1&#45;&gt;Node13 -->
<g id="edge13_Node000001_Node000013" class="edge">
<title>Node1&#45;&gt;Node13</title>
<g id="a_edge13_Node000001_Node000013"><a xlink:title=" ">
<path fill="none" stroke="#63b8ff" d="M56.27,-327.6C66.9,-304.39 95.75,-248.17 137.5,-219 139.34,-217.71 141.26,-216.52 143.25,-215.4"/>
<polygon fill="#63b8ff" stroke="#63b8ff" points="144.73,-218.57 152.25,-211.1 141.72,-212.25 144.73,-218.57"/>
</a>
</g>
</g>
<!-- Node14 -->
<g id="Node000014" class="node">
<title>Node14</title>
<g id="a_Node000014"><a xlink:href="group__ds3231__advance__driver.html#ga49a0b05ec4e492162dc9cf565e807c48" target="_top" xlink:title="set the chip aging offset">
<polygon fill="white" stroke="#666666" points="268.25,-172 144.25,-172 144.25,-152 268.25,-152 268.25,-172"/>
<text xml:space="preserve" text-anchor="middle" x="206.25" y="-158.5" font-family="Helvetica,sans-Serif" font-size="10.00">ds3231_set_aging_offset</text>
</a>
</g>
</g>
<!-- Node1&#45;&gt;Node14 -->
<g id="edge14_Node000001_Node000014" class="edge">
<title>Node1&#45;&gt;Node14</title>
<g id="a_edge14_Node000001_Node000014"><a xlink:title=" ">
<path fill="none" stroke="#63b8ff" d="M54.33,-327.75C61.94,-299.73 86.95,-221.22 137.5,-181 138.98,-179.82 140.53,-178.72 142.13,-177.68"/>
<polygon fill="#63b8ff" stroke="#63b8ff" points="143.33,-181.01 150.48,-173.19 140.01,-174.85 143.33,-181.01"/>
</a>
</g>
</g>
<!-- Node15 -->
<g id="Node000015" class="node">
<title>Node15</title>
<g id="a_Node000015"><a xlink:href="group__ds3231__alarm__driver.html#ga30ef06098c0b1854aa792a28da547576" target="_top" xlink:title="enable or disable the alarm interrupt">
<polygon fill="white" stroke="#666666" points="274.25,-134 138.25,-134 138.25,-114 274.25,-114 274.25,-134"/>
<text xml:space="preserve" text-anchor="middle" x="206.25" y="-120.5" font-family="Helvetica,sans-Serif" font-size="10.00">ds3231_set_alarm_interrupt</text>
</a>
</g>
</g>
<!-- Node1&#45;&gt;Node15 -->
<g id="edge15_Node000001_Node000015" class="edge">
<title>Node1&#45;&gt;Node15</title>
<g id="a_edge15_Node000001_Node000015"><a xlink:title=" ">
<path fill="none" stroke="#63b8ff" d="M53.16,-327.71C58.15,-295.34 78.02,-194.64 137.5,-143 138.62,-142.03 139.78,-141.11 140.98,-140.24"/>
<polygon fill="#63b8ff" stroke="#63b8ff" points="142.7,-143.29 149.53,-135.19 139.14,-137.26 142.7,-143.29"/>
</a>
</g>
</g>
<!-- Node16 -->
<g id="Node000016" class="node">
<title>Node16</title>
<g id="a_Node000016"><a xlink:href="group__ds3231__base__driver.html#ga019899f8bed7d2c8afd6f08634e57e68" target="_top" xlink:title="enable or disable the oscillator">
<polygon fill="white" stroke="#666666" points="261.5,-96 151,-96 151,-76 261.5,-76 261.5,-96"/>
<text xml:space="preserve" text-anchor="middle" x="206.25" y="-82.5" font-family="Helvetica,sans-Serif" font-size="10.00">ds3231_set_oscillator</text>
</a>
</g>
</g>
<!-- Node1&#45;&gt;Node16 -->
<g id="edge16_Node000001_Node000016" class="edge">
<title>Node1&#45;&gt;Node16</title>
<g id="a_edge16_Node000001_Node000016"><a xlink:title=" ">
<path fill="none" stroke="#63b8ff" d="M52.33,-327.84C54.95,-291.75 68.79,-168.47 137.5,-105 138.59,-104 139.72,-103.05 140.89,-102.15"/>
<polygon fill="#63b8ff" stroke="#63b8ff" points="142.64,-105.19 149.32,-96.96 138.97,-99.22 142.64,-105.19"/>
</a>
</g>
</g>
<!-- Node17 -->
<g id="Node000017" class="node">
<title>Node17</title>
<g id="a_Node000017"><a xlink:href="group__ds3231__advance__driver.html#ga9b19cc6345dc16d4f988518e17976368" target="_top" xlink:title="set the chip pin function">
<polygon fill="white" stroke="#666666" points="248.38,-58 164.12,-58 164.12,-38 248.38,-38 248.38,-58"/>
<text xml:space="preserve" text-anchor="middle" x="206.25" y="-44.5" font-family="Helvetica,sans-Serif" font-size="10.00">ds3231_set_pin</text>
</a>
</g>
</g>
<!-- Node1&#45;&gt;Node17 -->
<g id="edge17_Node000001_Node000017" class="edge">
<title>Node1&#45;&gt;Node17</title>
<g id="a_edge17_Node000001_Node000017"><a xlink:title=" ">
<path fill="none" stroke="#63b8ff" d="M51.73,-327.64C52.26,-287.71 59.65,-142.32 137.5,-67 142,-62.65 147.41,-59.28 153.19,-56.67"/>
<polygon fill="#63b8ff" stroke="#63b8ff" points="154.27,-60 162.46,-53.27 151.86,-53.43 154.27,-60"/>
</a>
</g>
</g>
<!-- Node18 -->
<g id="Node000018" class="node">
<title>Node18</title>
<g id="a_Node000018"><a xlink:href="group__ds3231__advance__driver.html#gadeaab17893161895a8ee84f11716c5c0" target="_top" xlink:title="enable or disable the square wave output">
<polygon fill="white" stroke="#666666" points="270.88,-20 141.62,-20 141.62,0 270.88,0 270.88,-20"/>
<text xml:space="preserve" text-anchor="middle" x="206.25" y="-6.5" font-family="Helvetica,sans-Serif" font-size="10.00">ds3231_set_square_wave</text>
</a>
</g>
</g>
<!-- Node1&#45;&gt;Node18 -->
<g id="edge18_Node000001_Node000018" class="edge">
<title>Node1&#45;&gt;Node18</title>
<g id="a_edge18_Node000001_Node000018"><a xlink:title=" ">
<path fill="none" stroke="#63b8ff" d="M51.27,-327.73C49.83,-284.62 50.22,-116.51 137.5,-29 138.25,-28.24 139.04,-27.52 139.84,-26.82"/>
<polygon fill="#63b8ff" stroke="#63b8ff" points="141.77,-29.74 148.06,-21.22 137.83,-23.95 141.77,-29.74"/>
</a>
</g>
</g>
<!-- Node12&#45;&gt;Node6 -->
<g id="edge12_Node000012_Node000006" class="edge">
<title>Node12&#45;&gt;Node6</title>
<g id="a_edge12_Node000012_Node000006"><a xlink:title=" ">
<path fill="none" stroke="#63b8ff" d="M259.55,-260.39C264.95,-262.93 270.21,-265.79 275,-269 306.79,-290.27 335.38,-324.16 352.91,-347.43"/>
<polygon fill="#63b8ff" stroke="#63b8ff" points="350.07,-349.49 358.82,-355.47 355.71,-345.34 350.07,-349.49"/>
</a>
</g>
</g>
</g>
</svg>
