<?xml version="1.0" encoding="UTF-8" standalone="no"?>
<!DOCTYPE svg PUBLIC "-//W3C//DTD SVG 1.1//EN"
 "http://www.w3.org/Graphics/SVG/1.1/DTD/svg11.dtd">
<!-- Generated by graphviz version 13.1.0 (20250701.0955)
 -->
<!-- Title: ds3231_readwrite_test Pages: 1 -->
<svg width="454pt" height="798pt"
 viewBox="0.00 0.00 454.00 798.00" xmlns="http://www.w3.org/2000/svg" xmlns:xlink="http://www.w3.org/1999/xlink">
<g id="graph0" class="graph" transform="scale(1 1) rotate(0) translate(4 794)">
<title>ds3231_readwrite_test</title>
<!-- Node1 -->
<g id="Node000001" class="node">
<title>Node1</title>
<g id="a_Node000001"><a xlink:title="readwrite test">
<polygon fill="#999999" stroke="#666666" points="114.25,-405 0,-405 0,-385 114.25,-385 114.25,-405"/>
<text xml:space="preserve" text-anchor="middle" x="57.12" y="-391.5" font-family="Helvetica,sans-Serif" font-size="10.00">ds3231_readwrite_test</text>
</a>
</g>
</g>
<!-- Node2 -->
<g id="Node000002" class="node">
<title>Node2</title>
<g id="a_Node000002"><a xlink:href="group__ds3231__advance__driver.html#gacf71c847b348df46bd1fcd2a122d1855" target="_top" xlink:title="convert a aging offset value to a register raw data">
<polygon fill="white" stroke="#666666" points="271.62,-790 166.38,-790 166.38,-758 271.62,-758 271.62,-790"/>
<text xml:space="preserve" text-anchor="start" x="174.38" y="-776.5" font-family="Helvetica,sans-Serif" font-size="10.00">ds3231_aging_offset</text>
<text xml:space="preserve" text-anchor="middle" x="219" y="-764.5" font-family="Helvetica,sans-Serif" font-size="10.00">_convert_to_register</text>
</a>
</g>
</g>
<!-- Node1&#45;&gt;Node2 -->
<g id="edge1_Node000001_Node000002" class="edge">
<title>Node1&#45;&gt;Node2</title>
<g id="a_edge1_Node000001_Node000002"><a xlink:title=" ">
<path fill="none" stroke="#63b8ff" d="M57.61,-405.27C55.84,-451.61 54.76,-643.56 150.25,-749 152.2,-751.15 154.36,-753.12 156.66,-754.92"/>
<polygon fill="#63b8ff" stroke="#63b8ff" points="154.6,-757.76 164.9,-760.24 158.4,-751.88 154.6,-757.76"/>
</a>
</g>
</g>
<!-- Node3 -->
<g id="Node000003" class="node">
<title>Node3</title>
<g id="a_Node000003"><a xlink:href="group__ds3231__base__driver.html#gadd1988301d419380a0d6bdf769233ca0" target="_top" xlink:title="close the chip">
<polygon fill="white" stroke="#666666" points="257,-740 181,-740 181,-720 257,-720 257,-740"/>
<text xml:space="preserve" text-anchor="middle" x="219" y="-726.5" font-family="Helvetica,sans-Serif" font-size="10.00">ds3231_deinit</text>
</a>
</g>
</g>
<!-- Node1&#45;&gt;Node3 -->
<g id="edge2_Node000001_Node000003" class="edge">
<title>Node1&#45;&gt;Node3</title>
<g id="a_edge2_Node000001_Node000003"><a xlink:title=" ">
<path fill="none" stroke="#63b8ff" d="M57.8,-405.22C57.01,-448.88 59.88,-621.56 150.25,-711 155.73,-716.43 162.63,-720.33 169.92,-723.14"/>
<polygon fill="#63b8ff" stroke="#63b8ff" points="168.72,-726.43 179.3,-726.06 170.8,-719.74 168.72,-726.43"/>
</a>
</g>
</g>
<!-- Node4 -->
<g id="Node000004" class="node">
<title>Node4</title>
<g id="a_Node000004"><a xlink:href="group__ds3231__advance__driver.html#ga4ab9b57ec4e72e9898aad7e105e478dd" target="_top" xlink:title="get the chip temperature">
<polygon fill="white" stroke="#666666" points="280.62,-702 157.38,-702 157.38,-682 280.62,-682 280.62,-702"/>
<text xml:space="preserve" text-anchor="middle" x="219" y="-688.5" font-family="Helvetica,sans-Serif" font-size="10.00">ds3231_get_temperature</text>
</a>
</g>
</g>
<!-- Node1&#45;&gt;Node4 -->
<g id="edge3_Node000001_Node000004" class="edge">
<title>Node1&#45;&gt;Node4</title>
<g id="a_edge3_Node000001_Node000004"><a xlink:title=" ">
<path fill="none" stroke="#63b8ff" d="M58.28,-405.36C59.46,-445.97 69.33,-595.77 150.25,-673 151.16,-673.86 152.1,-674.69 153.07,-675.48"/>
<polygon fill="#63b8ff" stroke="#63b8ff" points="151,-678.31 161.3,-680.8 154.81,-672.43 151,-678.31"/>
</a>
</g>
</g>
<!-- Node5 -->
<g id="Node000005" class="node">
<title>Node5</title>
<g id="a_Node000005"><a xlink:href="group__ds3231__base__driver.html#gabe9d692b88f8d5710ead0067ca3420b3" target="_top" xlink:title="get the current time">
<polygon fill="white" stroke="#666666" points="264.12,-664 173.88,-664 173.88,-644 264.12,-644 264.12,-664"/>
<text xml:space="preserve" text-anchor="middle" x="219" y="-650.5" font-family="Helvetica,sans-Serif" font-size="10.00">ds3231_get_time</text>
</a>
</g>
</g>
<!-- Node1&#45;&gt;Node5 -->
<g id="edge4_Node000001_Node000005" class="edge">
<title>Node1&#45;&gt;Node5</title>
<g id="a_edge4_Node000001_Node000005"><a xlink:title=" ">
<path fill="none" stroke="#63b8ff" d="M58.9,-405.47C62.24,-442.68 78.66,-569.78 150.25,-635 154.01,-638.42 158.34,-641.24 162.95,-643.55"/>
<polygon fill="#63b8ff" stroke="#63b8ff" points="161.41,-646.7 171.99,-647.27 164.07,-640.23 161.41,-646.7"/>
</a>
</g>
</g>
<!-- Node6 -->
<g id="Node000006" class="node">
<title>Node6</title>
<g id="a_Node000006"><a xlink:href="group__ds3231__base__driver.html#ga345a8eeaa00e23e1387408d4e0a5948f" target="_top" xlink:title="get chip&#39;s information">
<polygon fill="white" stroke="#666666" points="253.25,-626 184.75,-626 184.75,-606 253.25,-606 253.25,-626"/>
<text xml:space="preserve" text-anchor="middle" x="219" y="-612.5" font-family="Helvetica,sans-Serif" font-size="10.00">ds3231_info</text>
</a>
</g>
</g>
<!-- Node1&#45;&gt;Node6 -->
<g id="edge5_Node000001_Node000006" class="edge">
<title>Node1&#45;&gt;Node6</title>
<g id="a_edge5_Node000001_Node000006"><a xlink:title=" ">
<path fill="none" stroke="#63b8ff" d="M59.69,-405.19C65.32,-438.24 87.6,-543.35 150.25,-597 156.9,-602.69 165.12,-606.68 173.53,-609.48"/>
<polygon fill="#63b8ff" stroke="#63b8ff" points="172.54,-612.84 183.11,-612.12 174.4,-606.09 172.54,-612.84"/>
</a>
</g>
</g>
<!-- Node7 -->
<g id="Node000007" class="node">
<title>Node7</title>
<g id="a_Node000007"><a xlink:href="group__ds3231__base__driver.html#gaaba87dc05cadec0df3dc0b914596f52f" target="_top" xlink:title="initialize the chip">
<polygon fill="white" stroke="#666666" points="251.75,-588 186.25,-588 186.25,-568 251.75,-568 251.75,-588"/>
<text xml:space="preserve" text-anchor="middle" x="219" y="-574.5" font-family="Helvetica,sans-Serif" font-size="10.00">ds3231_init</text>
</a>
</g>
</g>
<!-- Node1&#45;&gt;Node7 -->
<g id="edge6_Node000001_Node000007" class="edge">
<title>Node1&#45;&gt;Node7</title>
<g id="a_edge6_Node000001_Node000007"><a xlink:title=" ">
<path fill="none" stroke="#63b8ff" d="M61.24,-405.2C70.29,-433.14 99.2,-511.6 150.25,-554 157.48,-560.01 166.33,-564.56 175.21,-567.99"/>
<polygon fill="#63b8ff" stroke="#63b8ff" points="173.93,-571.25 184.53,-571.15 176.18,-564.62 173.93,-571.25"/>
</a>
</g>
</g>
<!-- Node8 -->
<g id="Node000008" class="node">
<title>Node8</title>
<g id="a_Node000008"><a xlink:href="group__ds3231__interface__driver.html#gaa6eb4e12fee76239c8c2a30805596d0b" target="_top" xlink:title="interface print format data">
<polygon fill="white" stroke="#666666" points="445.5,-427 323.75,-427 323.75,-395 445.5,-395 445.5,-427"/>
<text xml:space="preserve" text-anchor="start" x="331.75" y="-413.5" font-family="Helvetica,sans-Serif" font-size="10.00">ds3231_interface_debug</text>
<text xml:space="preserve" text-anchor="middle" x="384.62" y="-401.5" font-family="Helvetica,sans-Serif" font-size="10.00">_print</text>
</a>
</g>
</g>
<!-- Node1&#45;&gt;Node8 -->
<g id="edge7_Node000001_Node000008" class="edge">
<title>Node1&#45;&gt;Node8</title>
<g id="a_edge7_Node000001_Node000008"><a xlink:title=" ">
<path fill="none" stroke="#63b8ff" d="M61.88,-405.39C71.72,-430.82 100.96,-495.98 150.25,-521 204.74,-548.66 232.12,-546.31 287.75,-521 325.41,-503.87 354.04,-463.82 369.83,-437.08"/>
<polygon fill="#63b8ff" stroke="#63b8ff" points="372.79,-438.95 374.69,-428.53 366.71,-435.5 372.79,-438.95"/>
</a>
</g>
</g>
<!-- Node9 -->
<g id="Node000009" class="node">
<title>Node9</title>
<g id="a_Node000009"><a xlink:href="group__ds3231__interface__driver.html#ga5f66d3dfa38b1dfa607cb447c6cca9fb" target="_top" xlink:title="interface delay ms">
<polygon fill="white" stroke="#666666" points="287.75,-512 150.25,-512 150.25,-492 287.75,-492 287.75,-512"/>
<text xml:space="preserve" text-anchor="middle" x="219" y="-498.5" font-family="Helvetica,sans-Serif" font-size="10.00">ds3231_interface_delay_ms</text>
</a>
</g>
</g>
<!-- Node1&#45;&gt;Node9 -->
<g id="edge8_Node000001_Node000009" class="edge">
<title>Node1&#45;&gt;Node9</title>
<g id="a_edge8_Node000001_Node000009"><a xlink:title=" ">
<path fill="none" stroke="#63b8ff" d="M66.06,-405.38C80.68,-423.8 113.74,-462.19 150.25,-483 153.04,-484.59 155.96,-486.05 158.97,-487.39"/>
<polygon fill="#63b8ff" stroke="#63b8ff" points="157.45,-490.55 168.03,-490.98 160.02,-484.04 157.45,-490.55"/>
</a>
</g>
</g>
<!-- Node10 -->
<g id="Node000010" class="node">
<title>Node10</title>
<g id="a_Node000010"><a xlink:href="group__ds3231__interface__driver.html#ga47398c613ac3a7b942a41548f288df97" target="_top" xlink:title="interface iic bus deinit">
<polygon fill="white" stroke="#666666" points="271.62,-474 166.38,-474 166.38,-442 271.62,-442 271.62,-474"/>
<text xml:space="preserve" text-anchor="start" x="174.38" y="-460.5" font-family="Helvetica,sans-Serif" font-size="10.00">ds3231_interface_iic</text>
<text xml:space="preserve" text-anchor="middle" x="219" y="-448.5" font-family="Helvetica,sans-Serif" font-size="10.00">_deinit</text>
</a>
</g>
</g>
<!-- Node1&#45;&gt;Node10 -->
<g id="edge9_Node000001_Node000010" class="edge">
<title>Node1&#45;&gt;Node10</title>
<g id="a_edge9_Node000001_Node000010"><a xlink:title=" ">
<path fill="none" stroke="#63b8ff" d="M82.66,-405.41C101.16,-413.2 127.2,-424 150.25,-433 154.1,-434.5 158.07,-436.03 162.09,-437.56"/>
<polygon fill="#63b8ff" stroke="#63b8ff" points="160.71,-440.78 171.3,-441.03 163.18,-434.23 160.71,-440.78"/>
</a>
</g>
</g>
<!-- Node11 -->
<g id="Node000011" class="node">
<title>Node11</title>
<g id="a_Node000011"><a xlink:href="group__ds3231__interface__driver.html#ga40312ed827d6f51b6552290da96fb6b3" target="_top" xlink:title="interface iic bus init">
<polygon fill="white" stroke="#666666" points="280.62,-424 157.38,-424 157.38,-404 280.62,-404 280.62,-424"/>
<text xml:space="preserve" text-anchor="middle" x="219" y="-410.5" font-family="Helvetica,sans-Serif" font-size="10.00">ds3231_interface_iic_init</text>
</a>
</g>
</g>
<!-- Node1&#45;&gt;Node11 -->
<g id="edge10_Node000001_Node000011" class="edge">
<title>Node1&#45;&gt;Node11</title>
<g id="a_edge10_Node000001_Node000011"><a xlink:title=" ">
<path fill="none" stroke="#63b8ff" d="M114.49,-401.7C124.59,-402.9 135.24,-404.17 145.72,-405.41"/>
<polygon fill="#63b8ff" stroke="#63b8ff" points="145.14,-408.87 155.48,-406.57 145.96,-401.91 145.14,-408.87"/>
</a>
</g>
</g>
<!-- Node12 -->
<g id="Node000012" class="node">
<title>Node12</title>
<g id="a_Node000012"><a xlink:href="group__ds3231__interface__driver.html#gae5d042241e9b52df7c0ffd76da919c39" target="_top" xlink:title="interface iic bus read">
<polygon fill="white" stroke="#666666" points="283.62,-386 154.38,-386 154.38,-366 283.62,-366 283.62,-386"/>
<text xml:space="preserve" text-anchor="middle" x="219" y="-372.5" font-family="Helvetica,sans-Serif" font-size="10.00">ds3231_interface_iic_read</text>
</a>
</g>
</g>
<!-- Node1&#45;&gt;Node12 -->
<g id="edge11_Node000001_Node000012" class="edge">
<title>Node1&#45;&gt;Node12</title>
<g id="a_edge11_Node000001_Node000012"><a xlink:title=" ">
<path fill="none" stroke="#63b8ff" d="M114.49,-388.3C123.67,-387.21 133.3,-386.07 142.84,-384.93"/>
<polygon fill="#63b8ff" stroke="#63b8ff" points="142.94,-388.45 152.46,-383.79 142.11,-381.49 142.94,-388.45"/>
</a>
</g>
</g>
<!-- Node13 -->
<g id="Node000013" class="node">
<title>Node13</title>
<g id="a_Node000013"><a xlink:href="group__ds3231__interface__driver.html#ga100951964c5772b71987fe5f29adb9ba" target="_top" xlink:title="interface iic bus write">
<polygon fill="white" stroke="#666666" points="271.62,-348 166.38,-348 166.38,-316 271.62,-316 271.62,-348"/>
<text xml:space="preserve" text-anchor="start" x="174.38" y="-334.5" font-family="Helvetica,sans-Serif" font-size="10.00">ds3231_interface_iic</text>
<text xml:space="preserve" text-anchor="middle" x="219" y="-322.5" font-family="Helvetica,sans-Serif" font-size="10.00">_write</text>
</a>
</g>
</g>
<!-- Node1&#45;&gt;Node13 -->
<g id="edge12_Node000001_Node000013" class="edge">
<title>Node1&#45;&gt;Node13</title>
<g id="a_edge12_Node000001_Node000013"><a xlink:title=" ">
<path fill="none" stroke="#63b8ff" d="M82.66,-384.59C101.16,-376.8 127.2,-366 150.25,-357 154.1,-355.5 158.07,-353.97 162.09,-352.44"/>
<polygon fill="#63b8ff" stroke="#63b8ff" points="163.18,-355.77 171.3,-348.97 160.71,-349.22 163.18,-355.77"/>
</a>
</g>
</g>
<!-- Node14 -->
<g id="Node000014" class="node">
<title>Node14</title>
<g id="a_Node000014"><a xlink:href="group__ds3231__interface__driver.html#gac9d5e54b603ed63e2e7505468d544dae" target="_top" xlink:title="interface receive callback">
<polygon fill="white" stroke="#666666" points="282.5,-298 155.5,-298 155.5,-266 282.5,-266 282.5,-298"/>
<text xml:space="preserve" text-anchor="start" x="163.5" y="-284.5" font-family="Helvetica,sans-Serif" font-size="10.00">ds3231_interface_receive</text>
<text xml:space="preserve" text-anchor="middle" x="219" y="-272.5" font-family="Helvetica,sans-Serif" font-size="10.00">_callback</text>
</a>
</g>
</g>
<!-- Node1&#45;&gt;Node14 -->
<g id="edge13_Node000001_Node000014" class="edge">
<title>Node1&#45;&gt;Node14</title>
<g id="a_edge13_Node000001_Node000014"><a xlink:title=" ">
<path fill="none" stroke="#63b8ff" d="M66.47,-384.62C81.47,-366.55 114.79,-329.13 150.25,-307 152.24,-305.76 154.31,-304.56 156.43,-303.41"/>
<polygon fill="#63b8ff" stroke="#63b8ff" points="157.84,-306.62 165.26,-299.05 154.74,-300.34 157.84,-306.62"/>
</a>
</g>
</g>
<!-- Node15 -->
<g id="Node000015" class="node">
<title>Node15</title>
<g id="a_Node000015"><a xlink:href="group__ds3231__advance__driver.html#gad06f018ac2a097830ccf6b60d6fab00d" target="_top" xlink:title="enable or disable the 32KHz output">
<polygon fill="white" stroke="#666666" points="284,-248 154,-248 154,-228 284,-228 284,-248"/>
<text xml:space="preserve" text-anchor="middle" x="219" y="-234.5" font-family="Helvetica,sans-Serif" font-size="10.00">ds3231_set_32khz_output</text>
</a>
</g>
</g>
<!-- Node1&#45;&gt;Node15 -->
<g id="edge15_Node000001_Node000015" class="edge">
<title>Node1&#45;&gt;Node15</title>
<g id="a_edge15_Node000001_Node000015"><a xlink:title=" ">
<path fill="none" stroke="#63b8ff" d="M62.1,-384.5C72.43,-358.65 102.69,-291.52 150.25,-257 152.03,-255.71 153.89,-254.5 155.82,-253.38"/>
<polygon fill="#63b8ff" stroke="#63b8ff" points="157.11,-256.65 164.54,-249.09 154.02,-250.37 157.11,-256.65"/>
</a>
</g>
</g>
<!-- Node16 -->
<g id="Node000016" class="node">
<title>Node16</title>
<g id="a_Node000016"><a xlink:href="group__ds3231__advance__driver.html#ga49a0b05ec4e492162dc9cf565e807c48" target="_top" xlink:title="set the chip aging offset">
<polygon fill="white" stroke="#666666" points="281,-210 157,-210 157,-190 281,-190 281,-210"/>
<text xml:space="preserve" text-anchor="middle" x="219" y="-196.5" font-family="Helvetica,sans-Serif" font-size="10.00">ds3231_set_aging_offset</text>
</a>
</g>
</g>
<!-- Node1&#45;&gt;Node16 -->
<g id="edge16_Node000001_Node000016" class="edge">
<title>Node1&#45;&gt;Node16</title>
<g id="a_edge16_Node000001_Node000016"><a xlink:title=" ">
<path fill="none" stroke="#63b8ff" d="M60.42,-384.84C67.79,-354.67 93.71,-264.81 150.25,-219 151.58,-217.92 152.98,-216.9 154.42,-215.94"/>
<polygon fill="#63b8ff" stroke="#63b8ff" points="156.1,-219.01 163.17,-211.12 152.72,-212.87 156.1,-219.01"/>
</a>
</g>
</g>
<!-- Node17 -->
<g id="Node000017" class="node">
<title>Node17</title>
<g id="a_Node000017"><a xlink:href="group__ds3231__alarm__driver.html#ga30ef06098c0b1854aa792a28da547576" target="_top" xlink:title="enable or disable the alarm interrupt">
<polygon fill="white" stroke="#666666" points="287,-172 151,-172 151,-152 287,-152 287,-172"/>
<text xml:space="preserve" text-anchor="middle" x="219" y="-158.5" font-family="Helvetica,sans-Serif" font-size="10.00">ds3231_set_alarm_interrupt</text>
</a>
</g>
</g>
<!-- Node1&#45;&gt;Node17 -->
<g id="edge17_Node000001_Node000017" class="edge">
<title>Node1&#45;&gt;Node17</title>
<g id="a_edge17_Node000001_Node000017"><a xlink:title=" ">
<path fill="none" stroke="#63b8ff" d="M59.42,-384.7C64.31,-350.29 84.8,-238.27 150.25,-181 151.36,-180.03 152.52,-179.1 153.72,-178.23"/>
<polygon fill="#63b8ff" stroke="#63b8ff" points="155.44,-181.28 162.25,-173.16 151.87,-175.26 155.44,-181.28"/>
</a>
</g>
</g>
<!-- Node18 -->
<g id="Node000018" class="node">
<title>Node18</title>
<g id="a_Node000018"><a xlink:href="group__ds3231__base__driver.html#ga019899f8bed7d2c8afd6f08634e57e68" target="_top" xlink:title="enable or disable the oscillator">
<polygon fill="white" stroke="#666666" points="274.25,-134 163.75,-134 163.75,-114 274.25,-114 274.25,-134"/>
<text xml:space="preserve" text-anchor="middle" x="219" y="-120.5" font-family="Helvetica,sans-Serif" font-size="10.00">ds3231_set_oscillator</text>
</a>
</g>
</g>
<!-- Node1&#45;&gt;Node18 -->
<g id="edge18_Node000001_Node000018" class="edge">
<title>Node1&#45;&gt;Node18</title>
<g id="a_edge18_Node000001_Node000018"><a xlink:title=" ">
<path fill="none" stroke="#63b8ff" d="M58.69,-384.55C61.32,-346.22 75.73,-211.99 150.25,-143 151.33,-142 152.47,-141.05 153.64,-140.14"/>
<polygon fill="#63b8ff" stroke="#63b8ff" points="155.38,-143.18 162.06,-134.95 151.71,-137.22 155.38,-143.18"/>
</a>
</g>
</g>
<!-- Node19 -->
<g id="Node000019" class="node">
<title>Node19</title>
<g id="a_Node000019"><a xlink:href="group__ds3231__advance__driver.html#ga9b19cc6345dc16d4f988518e17976368" target="_top" xlink:title="set the chip pin function">
<polygon fill="white" stroke="#666666" points="261.12,-96 176.88,-96 176.88,-76 261.12,-76 261.12,-96"/>
<text xml:space="preserve" text-anchor="middle" x="219" y="-82.5" font-family="Helvetica,sans-Serif" font-size="10.00">ds3231_set_pin</text>
</a>
</g>
</g>
<!-- Node1&#45;&gt;Node19 -->
<g id="edge19_Node000001_Node000019" class="edge">
<title>Node1&#45;&gt;Node19</title>
<g id="a_edge19_Node000001_Node000019"><a xlink:title=" ">
<path fill="none" stroke="#63b8ff" d="M58.11,-384.77C58.64,-343.31 66.3,-186.13 150.25,-105 154.75,-100.65 160.17,-97.28 165.95,-94.67"/>
<polygon fill="#63b8ff" stroke="#63b8ff" points="167.03,-98 175.21,-91.27 164.62,-91.43 167.03,-98"/>
</a>
</g>
</g>
<!-- Node20 -->
<g id="Node000020" class="node">
<title>Node20</title>
<g id="a_Node000020"><a xlink:href="group__ds3231__advance__driver.html#gadeaab17893161895a8ee84f11716c5c0" target="_top" xlink:title="enable or disable the square wave output">
<polygon fill="white" stroke="#666666" points="283.62,-58 154.38,-58 154.38,-38 283.62,-38 283.62,-58"/>
<text xml:space="preserve" text-anchor="middle" x="219" y="-44.5" font-family="Helvetica,sans-Serif" font-size="10.00">ds3231_set_square_wave</text>
</a>
</g>
</g>
<!-- Node1&#45;&gt;Node20 -->
<g id="edge20_Node000001_Node000020" class="edge">
<title>Node1&#45;&gt;Node20</title>
<g id="a_edge20_Node000001_Node000020"><a xlink:title=" ">
<path fill="none" stroke="#63b8ff" d="M57.67,-384.7C56.29,-339.93 56.96,-160.25 150.25,-67 151.01,-66.24 151.79,-65.52 152.6,-64.82"/>
<polygon fill="#63b8ff" stroke="#63b8ff" points="154.52,-67.74 160.82,-59.23 150.59,-61.95 154.52,-67.74"/>
</a>
</g>
</g>
<!-- Node21 -->
<g id="Node000021" class="node">
<title>Node21</title>
<g id="a_Node000021"><a xlink:href="group__ds3231__base__driver.html#ga05b741038c591595714004c1269a3f09" target="_top" xlink:title="set the current time">
<polygon fill="white" stroke="#666666" points="264.12,-20 173.88,-20 173.88,0 264.12,0 264.12,-20"/>
<text xml:space="preserve" text-anchor="middle" x="219" y="-6.5" font-family="Helvetica,sans-Serif" font-size="10.00">ds3231_set_time</text>
</a>
</g>
</g>
<!-- Node1&#45;&gt;Node21 -->
<g id="edge21_Node000001_Node000021" class="edge">
<title>Node1&#45;&gt;Node21</title>
<g id="a_edge21_Node000001_Node000021"><a xlink:title=" ">
<path fill="none" stroke="#63b8ff" d="M59.32,-384.74C65.78,-331.02 98.14,-82.52 150.25,-29 153.99,-25.15 158.45,-22.07 163.26,-19.6"/>
<polygon fill="#63b8ff" stroke="#63b8ff" points="164.23,-22.98 172.12,-15.91 161.55,-16.52 164.23,-22.98"/>
</a>
</g>
</g>
<!-- Node14&#45;&gt;Node8 -->
<g id="edge14_Node000014_Node000008" class="edge">
<title>Node14&#45;&gt;Node8</title>
<g id="a_edge14_Node000014_Node000008"><a xlink:title=" ">
<path fill="none" stroke="#63b8ff" d="M272.3,-298.39C277.7,-300.93 282.96,-303.79 287.75,-307 319.54,-328.27 348.13,-362.16 365.66,-385.43"/>
<polygon fill="#63b8ff" stroke="#63b8ff" points="362.82,-387.49 371.57,-393.47 368.46,-383.34 362.82,-387.49"/>
</a>
</g>
</g>
</g>
</svg>
