<?xml version="1.0" encoding="UTF-8" standalone="no"?>
<!DOCTYPE svg PUBLIC "-//W3C//DTD SVG 1.1//EN"
 "http://www.w3.org/Graphics/SVG/1.1/DTD/svg11.dtd">
<!-- Generated by graphviz version 13.1.0 (20250701.0955)
 -->
<!-- Title: ds3231_alarm_enable Pages: 1 -->
<svg width="291pt" height="66pt"
 viewBox="0.00 0.00 291.00 66.00" xmlns="http://www.w3.org/2000/svg" xmlns:xlink="http://www.w3.org/1999/xlink">
<g id="graph0" class="graph" transform="scale(1 1) rotate(0) translate(4 62)">
<title>ds3231_alarm_enable</title>
<!-- Node1 -->
<g id="Node000001" class="node">
<title>Node1</title>
<g id="a_Node000001"><a xlink:title="enable the alarm">
<polygon fill="#999999" stroke="#666666" points="110.5,-39 0,-39 0,-19 110.5,-19 110.5,-39"/>
<text xml:space="preserve" text-anchor="middle" x="55.25" y="-25.5" font-family="Helvetica,sans-Serif" font-size="10.00">ds3231_alarm_enable</text>
</a>
</g>
</g>
<!-- Node2 -->
<g id="Node000002" class="node">
<title>Node2</title>
<g id="a_Node000002"><a xlink:href="group__ds3231__alarm__driver.html#ga778045abae85c26cc9b0fa40b60188da" target="_top" xlink:title="clear the alarm flag">
<polygon fill="white" stroke="#666666" points="266,-58 163,-58 163,-38 266,-38 266,-58"/>
<text xml:space="preserve" text-anchor="middle" x="214.5" y="-44.5" font-family="Helvetica,sans-Serif" font-size="10.00">ds3231_alarm_clear</text>
</a>
</g>
</g>
<!-- Node1&#45;&gt;Node2 -->
<g id="edge1_Node000001_Node000002" class="edge">
<title>Node1&#45;&gt;Node2</title>
<g id="a_edge1_Node000001_Node000002"><a xlink:title=" ">
<path fill="none" stroke="#63b8ff" d="M110.81,-35.59C123.97,-37.18 138.14,-38.89 151.61,-40.52"/>
<polygon fill="#63b8ff" stroke="#63b8ff" points="150.89,-43.96 161.23,-41.68 151.72,-37.01 150.89,-43.96"/>
</a>
</g>
</g>
<!-- Node3 -->
<g id="Node000003" class="node">
<title>Node3</title>
<g id="a_Node000003"><a xlink:href="group__ds3231__alarm__driver.html#ga30ef06098c0b1854aa792a28da547576" target="_top" xlink:title="enable or disable the alarm interrupt">
<polygon fill="white" stroke="#666666" points="282.5,-20 146.5,-20 146.5,0 282.5,0 282.5,-20"/>
<text xml:space="preserve" text-anchor="middle" x="214.5" y="-6.5" font-family="Helvetica,sans-Serif" font-size="10.00">ds3231_set_alarm_interrupt</text>
</a>
</g>
</g>
<!-- Node1&#45;&gt;Node3 -->
<g id="edge2_Node000001_Node000003" class="edge">
<title>Node1&#45;&gt;Node3</title>
<g id="a_edge2_Node000001_Node000003"><a xlink:title=" ">
<path fill="none" stroke="#63b8ff" d="M110.81,-22.41C118.52,-21.48 126.58,-20.5 134.65,-19.53"/>
<polygon fill="#63b8ff" stroke="#63b8ff" points="135,-23.01 144.51,-18.34 134.16,-16.06 135,-23.01"/>
</a>
</g>
</g>
</g>
</svg>
