<?xml version="1.0" encoding="UTF-8" standalone="no"?>
<!DOCTYPE svg PUBLIC "-//W3C//DTD SVG 1.1//EN"
 "http://www.w3.org/Graphics/SVG/1.1/DTD/svg11.dtd">
<!-- Generated by graphviz version 13.1.0 (20250701.0955)
 -->
<!-- Title: ds3231_basic_init Pages: 1 -->
<svg width="433pt" height="646pt"
 viewBox="0.00 0.00 433.00 646.00" xmlns="http://www.w3.org/2000/svg" xmlns:xlink="http://www.w3.org/1999/xlink">
<g id="graph0" class="graph" transform="scale(1 1) rotate(0) translate(4 642)">
<title>ds3231_basic_init</title>
<!-- Node1 -->
<g id="Node000001" class="node">
<title>Node1</title>
<g id="a_Node000001"><a xlink:title="basic example init">
<polygon fill="#999999" stroke="#666666" points="94,-326 0,-326 0,-306 94,-306 94,-326"/>
<text xml:space="preserve" text-anchor="middle" x="47" y="-312.5" font-family="Helvetica,sans-Serif" font-size="10.00">ds3231_basic_init</text>
</a>
</g>
</g>
<!-- Node2 -->
<g id="Node000002" class="node">
<title>Node2</title>
<g id="a_Node000002"><a xlink:href="group__ds3231__advance__driver.html#gacf71c847b348df46bd1fcd2a122d1855" target="_top" xlink:title="convert a aging offset value to a register raw data">
<polygon fill="white" stroke="#666666" points="251.38,-638 146.12,-638 146.12,-606 251.38,-606 251.38,-638"/>
<text xml:space="preserve" text-anchor="start" x="154.12" y="-624.5" font-family="Helvetica,sans-Serif" font-size="10.00">ds3231_aging_offset</text>
<text xml:space="preserve" text-anchor="middle" x="198.75" y="-612.5" font-family="Helvetica,sans-Serif" font-size="10.00">_convert_to_register</text>
</a>
</g>
</g>
<!-- Node1&#45;&gt;Node2 -->
<g id="edge1_Node000001_Node000002" class="edge">
<title>Node1&#45;&gt;Node2</title>
<g id="a_edge1_Node000001_Node000002"><a xlink:title=" ">
<path fill="none" stroke="#63b8ff" d="M47.88,-326.26C47.99,-366.48 53.74,-515.24 130,-597 131.95,-599.09 134.08,-601 136.36,-602.75"/>
<polygon fill="#63b8ff" stroke="#63b8ff" points="134.14,-605.49 144.45,-607.94 137.92,-599.6 134.14,-605.49"/>
</a>
</g>
</g>
<!-- Node3 -->
<g id="Node000003" class="node">
<title>Node3</title>
<g id="a_Node000003"><a xlink:href="group__ds3231__base__driver.html#gadd1988301d419380a0d6bdf769233ca0" target="_top" xlink:title="close the chip">
<polygon fill="white" stroke="#666666" points="236.75,-588 160.75,-588 160.75,-568 236.75,-568 236.75,-588"/>
<text xml:space="preserve" text-anchor="middle" x="198.75" y="-574.5" font-family="Helvetica,sans-Serif" font-size="10.00">ds3231_deinit</text>
</a>
</g>
</g>
<!-- Node1&#45;&gt;Node3 -->
<g id="edge2_Node000001_Node000003" class="edge">
<title>Node1&#45;&gt;Node3</title>
<g id="a_edge2_Node000001_Node000003"><a xlink:title=" ">
<path fill="none" stroke="#63b8ff" d="M48.24,-326.31C49.68,-363.54 59.76,-492.33 130,-559 135.47,-564.19 142.25,-567.99 149.38,-570.75"/>
<polygon fill="#63b8ff" stroke="#63b8ff" points="148.32,-574.09 158.9,-573.76 150.42,-567.41 148.32,-574.09"/>
</a>
</g>
</g>
<!-- Node4 -->
<g id="Node000004" class="node">
<title>Node4</title>
<g id="a_Node000004"><a xlink:href="group__ds3231__base__driver.html#gaaba87dc05cadec0df3dc0b914596f52f" target="_top" xlink:title="initialize the chip">
<polygon fill="white" stroke="#666666" points="231.5,-550 166,-550 166,-530 231.5,-530 231.5,-550"/>
<text xml:space="preserve" text-anchor="middle" x="198.75" y="-536.5" font-family="Helvetica,sans-Serif" font-size="10.00">ds3231_init</text>
</a>
</g>
</g>
<!-- Node1&#45;&gt;Node4 -->
<g id="edge3_Node000001_Node000004" class="edge">
<title>Node1&#45;&gt;Node4</title>
<g id="a_edge3_Node000001_Node000004"><a xlink:title=" ">
<path fill="none" stroke="#63b8ff" d="M49.26,-326.37C53.79,-359.02 72.12,-460.87 130,-516 137.01,-522.68 146,-527.52 155.13,-531.01"/>
<polygon fill="#63b8ff" stroke="#63b8ff" points="153.75,-534.25 164.35,-534.06 155.95,-527.6 153.75,-534.25"/>
</a>
</g>
</g>
<!-- Node5 -->
<g id="Node000005" class="node">
<title>Node5</title>
<g id="a_Node000005"><a xlink:href="group__ds3231__interface__driver.html#gaa6eb4e12fee76239c8c2a30805596d0b" target="_top" xlink:title="interface print format data">
<polygon fill="white" stroke="#666666" points="425.25,-389 303.5,-389 303.5,-357 425.25,-357 425.25,-389"/>
<text xml:space="preserve" text-anchor="start" x="311.5" y="-375.5" font-family="Helvetica,sans-Serif" font-size="10.00">ds3231_interface_debug</text>
<text xml:space="preserve" text-anchor="middle" x="364.38" y="-363.5" font-family="Helvetica,sans-Serif" font-size="10.00">_print</text>
</a>
</g>
</g>
<!-- Node1&#45;&gt;Node5 -->
<g id="edge4_Node000001_Node000005" class="edge">
<title>Node1&#45;&gt;Node5</title>
<g id="a_edge4_Node000001_Node000005"><a xlink:title=" ">
<path fill="none" stroke="#63b8ff" d="M49.35,-326.33C53.96,-356.88 72.16,-446.96 130,-483 181.87,-515.32 211.87,-508.31 267.5,-483 305.16,-465.87 333.79,-425.82 349.58,-399.08"/>
<polygon fill="#63b8ff" stroke="#63b8ff" points="352.54,-400.95 354.44,-390.53 346.46,-397.5 352.54,-400.95"/>
</a>
</g>
</g>
<!-- Node6 -->
<g id="Node000006" class="node">
<title>Node6</title>
<g id="a_Node000006"><a xlink:href="group__ds3231__interface__driver.html#ga5f66d3dfa38b1dfa607cb447c6cca9fb" target="_top" xlink:title="interface delay ms">
<polygon fill="white" stroke="#666666" points="267.5,-474 130,-474 130,-454 267.5,-454 267.5,-474"/>
<text xml:space="preserve" text-anchor="middle" x="198.75" y="-460.5" font-family="Helvetica,sans-Serif" font-size="10.00">ds3231_interface_delay_ms</text>
</a>
</g>
</g>
<!-- Node1&#45;&gt;Node6 -->
<g id="edge5_Node000001_Node000006" class="edge">
<title>Node1&#45;&gt;Node6</title>
<g id="a_edge5_Node000001_Node000006"><a xlink:title=" ">
<path fill="none" stroke="#63b8ff" d="M51.53,-326.17C60.53,-350.58 86.76,-412.87 130,-445 131.73,-446.28 133.54,-447.48 135.41,-448.6"/>
<polygon fill="#63b8ff" stroke="#63b8ff" points="133.37,-451.49 143.88,-452.85 136.51,-445.23 133.37,-451.49"/>
</a>
</g>
</g>
<!-- Node7 -->
<g id="Node000007" class="node">
<title>Node7</title>
<g id="a_Node000007"><a xlink:href="group__ds3231__interface__driver.html#ga47398c613ac3a7b942a41548f288df97" target="_top" xlink:title="interface iic bus deinit">
<polygon fill="white" stroke="#666666" points="251.38,-436 146.12,-436 146.12,-404 251.38,-404 251.38,-436"/>
<text xml:space="preserve" text-anchor="start" x="154.12" y="-422.5" font-family="Helvetica,sans-Serif" font-size="10.00">ds3231_interface_iic</text>
<text xml:space="preserve" text-anchor="middle" x="198.75" y="-410.5" font-family="Helvetica,sans-Serif" font-size="10.00">_deinit</text>
</a>
</g>
</g>
<!-- Node1&#45;&gt;Node7 -->
<g id="edge6_Node000001_Node000007" class="edge">
<title>Node1&#45;&gt;Node7</title>
<g id="a_edge6_Node000001_Node000007"><a xlink:title=" ">
<path fill="none" stroke="#63b8ff" d="M56.27,-326.38C69.99,-342.97 99.02,-375.57 130,-395 131.99,-396.25 134.05,-397.45 136.17,-398.6"/>
<polygon fill="#63b8ff" stroke="#63b8ff" points="134.48,-401.67 144.99,-402.97 137.58,-395.4 134.48,-401.67"/>
</a>
</g>
</g>
<!-- Node8 -->
<g id="Node000008" class="node">
<title>Node8</title>
<g id="a_Node000008"><a xlink:href="group__ds3231__interface__driver.html#ga40312ed827d6f51b6552290da96fb6b3" target="_top" xlink:title="interface iic bus init">
<polygon fill="white" stroke="#666666" points="260.38,-386 137.12,-386 137.12,-366 260.38,-366 260.38,-386"/>
<text xml:space="preserve" text-anchor="middle" x="198.75" y="-372.5" font-family="Helvetica,sans-Serif" font-size="10.00">ds3231_interface_iic_init</text>
</a>
</g>
</g>
<!-- Node1&#45;&gt;Node8 -->
<g id="edge7_Node000001_Node000008" class="edge">
<title>Node1&#45;&gt;Node8</title>
<g id="a_edge7_Node000001_Node000008"><a xlink:title=" ">
<path fill="none" stroke="#63b8ff" d="M66.43,-326.49C82.75,-335.46 107.43,-348.28 130,-357 134.87,-358.88 140.01,-360.66 145.18,-362.33"/>
<polygon fill="#63b8ff" stroke="#63b8ff" points="143.75,-365.55 154.33,-365.13 145.79,-358.86 143.75,-365.55"/>
</a>
</g>
</g>
<!-- Node9 -->
<g id="Node000009" class="node">
<title>Node9</title>
<g id="a_Node000009"><a xlink:href="group__ds3231__interface__driver.html#gae5d042241e9b52df7c0ffd76da919c39" target="_top" xlink:title="interface iic bus read">
<polygon fill="white" stroke="#666666" points="263.38,-348 134.12,-348 134.12,-328 263.38,-328 263.38,-348"/>
<text xml:space="preserve" text-anchor="middle" x="198.75" y="-334.5" font-family="Helvetica,sans-Serif" font-size="10.00">ds3231_interface_iic_read</text>
</a>
</g>
</g>
<!-- Node1&#45;&gt;Node9 -->
<g id="edge8_Node000001_Node000009" class="edge">
<title>Node1&#45;&gt;Node9</title>
<g id="a_edge8_Node000001_Node000009"><a xlink:title=" ">
<path fill="none" stroke="#63b8ff" d="M94.15,-322.78C103.17,-324.11 112.84,-325.53 122.52,-326.95"/>
<polygon fill="#63b8ff" stroke="#63b8ff" points="121.95,-330.4 132.36,-328.39 122.97,-323.48 121.95,-330.4"/>
</a>
</g>
</g>
<!-- Node10 -->
<g id="Node000010" class="node">
<title>Node10</title>
<g id="a_Node000010"><a xlink:href="group__ds3231__interface__driver.html#ga100951964c5772b71987fe5f29adb9ba" target="_top" xlink:title="interface iic bus write">
<polygon fill="white" stroke="#666666" points="251.38,-310 146.12,-310 146.12,-278 251.38,-278 251.38,-310"/>
<text xml:space="preserve" text-anchor="start" x="154.12" y="-296.5" font-family="Helvetica,sans-Serif" font-size="10.00">ds3231_interface_iic</text>
<text xml:space="preserve" text-anchor="middle" x="198.75" y="-284.5" font-family="Helvetica,sans-Serif" font-size="10.00">_write</text>
</a>
</g>
</g>
<!-- Node1&#45;&gt;Node10 -->
<g id="edge9_Node000001_Node000010" class="edge">
<title>Node1&#45;&gt;Node10</title>
<g id="a_edge9_Node000001_Node000010"><a xlink:title=" ">
<path fill="none" stroke="#63b8ff" d="M94.15,-309.22C106.91,-307.35 120.98,-305.28 134.52,-303.29"/>
<polygon fill="#63b8ff" stroke="#63b8ff" points="134.86,-306.78 144.24,-301.86 133.84,-299.85 134.86,-306.78"/>
</a>
</g>
</g>
<!-- Node11 -->
<g id="Node000011" class="node">
<title>Node11</title>
<g id="a_Node000011"><a xlink:href="group__ds3231__interface__driver.html#gac9d5e54b603ed63e2e7505468d544dae" target="_top" xlink:title="interface receive callback">
<polygon fill="white" stroke="#666666" points="262.25,-260 135.25,-260 135.25,-228 262.25,-228 262.25,-260"/>
<text xml:space="preserve" text-anchor="start" x="143.25" y="-246.5" font-family="Helvetica,sans-Serif" font-size="10.00">ds3231_interface_receive</text>
<text xml:space="preserve" text-anchor="middle" x="198.75" y="-234.5" font-family="Helvetica,sans-Serif" font-size="10.00">_callback</text>
</a>
</g>
</g>
<!-- Node1&#45;&gt;Node11 -->
<g id="edge10_Node000001_Node000011" class="edge">
<title>Node1&#45;&gt;Node11</title>
<g id="a_edge10_Node000001_Node000011"><a xlink:title=" ">
<path fill="none" stroke="#63b8ff" d="M64.22,-305.63C80.45,-295.5 106.36,-280.04 130,-269 133.08,-267.56 136.27,-266.15 139.51,-264.77"/>
<polygon fill="#63b8ff" stroke="#63b8ff" points="140.62,-268.09 148.55,-261.07 137.97,-261.61 140.62,-268.09"/>
</a>
</g>
</g>
<!-- Node12 -->
<g id="Node000012" class="node">
<title>Node12</title>
<g id="a_Node000012"><a xlink:href="group__ds3231__advance__driver.html#gad06f018ac2a097830ccf6b60d6fab00d" target="_top" xlink:title="enable or disable the 32KHz output">
<polygon fill="white" stroke="#666666" points="263.75,-210 133.75,-210 133.75,-190 263.75,-190 263.75,-210"/>
<text xml:space="preserve" text-anchor="middle" x="198.75" y="-196.5" font-family="Helvetica,sans-Serif" font-size="10.00">ds3231_set_32khz_output</text>
</a>
</g>
</g>
<!-- Node1&#45;&gt;Node12 -->
<g id="edge12_Node000001_Node000012" class="edge">
<title>Node1&#45;&gt;Node12</title>
<g id="a_edge12_Node000001_Node000012"><a xlink:title=" ">
<path fill="none" stroke="#63b8ff" d="M53.77,-305.76C65.48,-285.91 94.01,-242.13 130,-219 132.25,-217.55 134.62,-216.21 137.06,-214.97"/>
<polygon fill="#63b8ff" stroke="#63b8ff" points="138.29,-218.25 146.04,-211.03 135.48,-211.84 138.29,-218.25"/>
</a>
</g>
</g>
<!-- Node13 -->
<g id="Node000013" class="node">
<title>Node13</title>
<g id="a_Node000013"><a xlink:href="group__ds3231__advance__driver.html#ga49a0b05ec4e492162dc9cf565e807c48" target="_top" xlink:title="set the chip aging offset">
<polygon fill="white" stroke="#666666" points="260.75,-172 136.75,-172 136.75,-152 260.75,-152 260.75,-172"/>
<text xml:space="preserve" text-anchor="middle" x="198.75" y="-158.5" font-family="Helvetica,sans-Serif" font-size="10.00">ds3231_set_aging_offset</text>
</a>
</g>
</g>
<!-- Node1&#45;&gt;Node13 -->
<g id="edge13_Node000001_Node000013" class="edge">
<title>Node1&#45;&gt;Node13</title>
<g id="a_edge13_Node000001_Node000013"><a xlink:title=" ">
<path fill="none" stroke="#63b8ff" d="M51.26,-305.74C59.83,-280.47 85.44,-214.82 130,-181 131.72,-179.7 133.52,-178.49 135.38,-177.36"/>
<polygon fill="#63b8ff" stroke="#63b8ff" points="136.49,-180.72 143.81,-173.06 133.31,-174.48 136.49,-180.72"/>
</a>
</g>
</g>
<!-- Node14 -->
<g id="Node000014" class="node">
<title>Node14</title>
<g id="a_Node000014"><a xlink:href="group__ds3231__alarm__driver.html#ga30ef06098c0b1854aa792a28da547576" target="_top" xlink:title="enable or disable the alarm interrupt">
<polygon fill="white" stroke="#666666" points="266.75,-134 130.75,-134 130.75,-114 266.75,-114 266.75,-134"/>
<text xml:space="preserve" text-anchor="middle" x="198.75" y="-120.5" font-family="Helvetica,sans-Serif" font-size="10.00">ds3231_set_alarm_interrupt</text>
</a>
</g>
</g>
<!-- Node1&#45;&gt;Node14 -->
<g id="edge14_Node000001_Node000014" class="edge">
<title>Node1&#45;&gt;Node14</title>
<g id="a_edge14_Node000001_Node000014"><a xlink:title=" ">
<path fill="none" stroke="#63b8ff" d="M49.82,-305.61C55.65,-275.59 76.65,-188.01 130,-143 131.28,-141.92 132.63,-140.9 134.01,-139.93"/>
<polygon fill="#63b8ff" stroke="#63b8ff" points="135.49,-143.12 142.45,-135.13 132.03,-137.03 135.49,-143.12"/>
</a>
</g>
</g>
<!-- Node15 -->
<g id="Node000015" class="node">
<title>Node15</title>
<g id="a_Node000015"><a xlink:href="group__ds3231__base__driver.html#ga019899f8bed7d2c8afd6f08634e57e68" target="_top" xlink:title="enable or disable the oscillator">
<polygon fill="white" stroke="#666666" points="254,-96 143.5,-96 143.5,-76 254,-76 254,-96"/>
<text xml:space="preserve" text-anchor="middle" x="198.75" y="-82.5" font-family="Helvetica,sans-Serif" font-size="10.00">ds3231_set_oscillator</text>
</a>
</g>
</g>
<!-- Node1&#45;&gt;Node15 -->
<g id="edge15_Node000001_Node000015" class="edge">
<title>Node1&#45;&gt;Node15</title>
<g id="a_edge15_Node000001_Node000015"><a xlink:title=" ">
<path fill="none" stroke="#63b8ff" d="M48.82,-305.87C52.12,-272.01 67.42,-161.77 130,-105 131.09,-104.01 132.24,-103.07 133.42,-102.17"/>
<polygon fill="#63b8ff" stroke="#63b8ff" points="135.15,-105.22 141.88,-97.03 131.52,-99.23 135.15,-105.22"/>
</a>
</g>
</g>
<!-- Node16 -->
<g id="Node000016" class="node">
<title>Node16</title>
<g id="a_Node000016"><a xlink:href="group__ds3231__advance__driver.html#ga9b19cc6345dc16d4f988518e17976368" target="_top" xlink:title="set the chip pin function">
<polygon fill="white" stroke="#666666" points="240.88,-58 156.62,-58 156.62,-38 240.88,-38 240.88,-58"/>
<text xml:space="preserve" text-anchor="middle" x="198.75" y="-44.5" font-family="Helvetica,sans-Serif" font-size="10.00">ds3231_set_pin</text>
</a>
</g>
</g>
<!-- Node1&#45;&gt;Node16 -->
<g id="edge16_Node000001_Node000016" class="edge">
<title>Node1&#45;&gt;Node16</title>
<g id="a_edge16_Node000001_Node000016"><a xlink:title=" ">
<path fill="none" stroke="#63b8ff" d="M48.14,-305.7C49.25,-267.92 58.29,-135.57 130,-67 134.52,-62.67 139.95,-59.32 145.74,-56.72"/>
<polygon fill="#63b8ff" stroke="#63b8ff" points="146.82,-60.05 155.01,-53.33 144.42,-53.47 146.82,-60.05"/>
</a>
</g>
</g>
<!-- Node17 -->
<g id="Node000017" class="node">
<title>Node17</title>
<g id="a_Node000017"><a xlink:href="group__ds3231__advance__driver.html#gadeaab17893161895a8ee84f11716c5c0" target="_top" xlink:title="enable or disable the square wave output">
<polygon fill="white" stroke="#666666" points="263.38,-20 134.12,-20 134.12,0 263.38,0 263.38,-20"/>
<text xml:space="preserve" text-anchor="middle" x="198.75" y="-6.5" font-family="Helvetica,sans-Serif" font-size="10.00">ds3231_set_square_wave</text>
</a>
</g>
</g>
<!-- Node1&#45;&gt;Node17 -->
<g id="edge17_Node000001_Node000017" class="edge">
<title>Node1&#45;&gt;Node17</title>
<g id="a_edge17_Node000001_Node000017"><a xlink:title=" ">
<path fill="none" stroke="#63b8ff" d="M47.62,-305.62C46.7,-264.27 49.01,-109.6 130,-29 130.76,-28.25 131.54,-27.52 132.35,-26.82"/>
<polygon fill="#63b8ff" stroke="#63b8ff" points="134.28,-29.75 140.59,-21.24 130.35,-23.96 134.28,-29.75"/>
</a>
</g>
</g>
<!-- Node11&#45;&gt;Node5 -->
<g id="edge11_Node000011_Node000005" class="edge">
<title>Node11&#45;&gt;Node5</title>
<g id="a_edge11_Node000011_Node000005"><a xlink:title=" ">
<path fill="none" stroke="#63b8ff" d="M252.05,-260.39C257.45,-262.93 262.71,-265.79 267.5,-269 299.29,-290.27 327.88,-324.16 345.41,-347.43"/>
<polygon fill="#63b8ff" stroke="#63b8ff" points="342.57,-349.49 351.32,-355.47 348.21,-345.34 342.57,-349.49"/>
</a>
</g>
</g>
</g>
</svg>
