<?xml version="1.0" encoding="UTF-8" standalone="no"?>
<!DOCTYPE svg PUBLIC "-//W3C//DTD SVG 1.1//EN"
 "http://www.w3.org/Graphics/SVG/1.1/DTD/svg11.dtd">
<!-- Generated by graphviz version 13.1.0 (20250701.0955)
 -->
<!-- Title: ds3231_alarm_init Pages: 1 -->
<svg width="276pt" height="570pt"
 viewBox="0.00 0.00 276.00 570.00" xmlns="http://www.w3.org/2000/svg" xmlns:xlink="http://www.w3.org/1999/xlink">
<g id="graph0" class="graph" transform="scale(1 1) rotate(0) translate(4 566)">
<title>ds3231_alarm_init</title>
<!-- Node1 -->
<g id="Node000001" class="node">
<title>Node1</title>
<g id="a_Node000001"><a xlink:title="alarm example init">
<polygon fill="#999999" stroke="#666666" points="94.75,-279 0,-279 0,-259 94.75,-259 94.75,-279"/>
<text xml:space="preserve" text-anchor="middle" x="47.38" y="-265.5" font-family="Helvetica,sans-Serif" font-size="10.00">ds3231_alarm_init</text>
</a>
</g>
</g>
<!-- Node2 -->
<g id="Node000002" class="node">
<title>Node2</title>
<g id="a_Node000002"><a xlink:href="group__ds3231__advance__driver.html#gacf71c847b348df46bd1fcd2a122d1855" target="_top" xlink:title="convert a aging offset value to a register raw data">
<polygon fill="white" stroke="#666666" points="252.12,-562 146.88,-562 146.88,-530 252.12,-530 252.12,-562"/>
<text xml:space="preserve" text-anchor="start" x="154.88" y="-548.5" font-family="Helvetica,sans-Serif" font-size="10.00">ds3231_aging_offset</text>
<text xml:space="preserve" text-anchor="middle" x="199.5" y="-536.5" font-family="Helvetica,sans-Serif" font-size="10.00">_convert_to_register</text>
</a>
</g>
</g>
<!-- Node1&#45;&gt;Node2 -->
<g id="edge1_Node000001_Node000002" class="edge">
<title>Node1&#45;&gt;Node2</title>
<g id="a_edge1_Node000001_Node000002"><a xlink:title=" ">
<path fill="none" stroke="#63b8ff" d="M48.69,-279.49C50.4,-317.41 61.3,-448.89 130.75,-521 132.73,-523.05 134.89,-524.94 137.19,-526.67"/>
<polygon fill="#63b8ff" stroke="#63b8ff" points="135.01,-529.44 145.34,-531.81 138.75,-523.52 135.01,-529.44"/>
</a>
</g>
</g>
<!-- Node3 -->
<g id="Node000003" class="node">
<title>Node3</title>
<g id="a_Node000003"><a xlink:href="group__ds3231__base__driver.html#gadd1988301d419380a0d6bdf769233ca0" target="_top" xlink:title="close the chip">
<polygon fill="white" stroke="#666666" points="237.5,-512 161.5,-512 161.5,-492 237.5,-492 237.5,-512"/>
<text xml:space="preserve" text-anchor="middle" x="199.5" y="-498.5" font-family="Helvetica,sans-Serif" font-size="10.00">ds3231_deinit</text>
</a>
</g>
</g>
<!-- Node1&#45;&gt;Node3 -->
<g id="edge2_Node000001_Node000003" class="edge">
<title>Node1&#45;&gt;Node3</title>
<g id="a_edge2_Node000001_Node000003"><a xlink:title=" ">
<path fill="none" stroke="#63b8ff" d="M49.17,-279.28C52.37,-313.6 67.45,-425.39 130.75,-483 136.33,-488.08 143.16,-491.81 150.31,-494.55"/>
<polygon fill="#63b8ff" stroke="#63b8ff" points="149.26,-497.89 159.85,-497.55 151.36,-491.21 149.26,-497.89"/>
</a>
</g>
</g>
<!-- Node4 -->
<g id="Node000004" class="node">
<title>Node4</title>
<g id="a_Node000004"><a xlink:href="group__ds3231__base__driver.html#gaaba87dc05cadec0df3dc0b914596f52f" target="_top" xlink:title="initialize the chip">
<polygon fill="white" stroke="#666666" points="232.25,-474 166.75,-474 166.75,-454 232.25,-454 232.25,-474"/>
<text xml:space="preserve" text-anchor="middle" x="199.5" y="-460.5" font-family="Helvetica,sans-Serif" font-size="10.00">ds3231_init</text>
</a>
</g>
</g>
<!-- Node1&#45;&gt;Node4 -->
<g id="edge3_Node000001_Node000004" class="edge">
<title>Node1&#45;&gt;Node4</title>
<g id="a_edge3_Node000001_Node000004"><a xlink:title=" ">
<path fill="none" stroke="#63b8ff" d="M50.08,-279.14C55.7,-309.25 76.45,-398.97 130.75,-445 137.84,-451.01 146.7,-455.13 155.65,-457.94"/>
<polygon fill="#63b8ff" stroke="#63b8ff" points="154.47,-461.25 165.03,-460.39 156.24,-454.48 154.47,-461.25"/>
</a>
</g>
</g>
<!-- Node5 -->
<g id="Node000005" class="node">
<title>Node5</title>
<g id="a_Node000005"><a xlink:href="group__ds3231__interface__driver.html#gaa6eb4e12fee76239c8c2a30805596d0b" target="_top" xlink:title="interface print format data">
<polygon fill="white" stroke="#666666" points="260.38,-436 138.62,-436 138.62,-404 260.38,-404 260.38,-436"/>
<text xml:space="preserve" text-anchor="start" x="146.62" y="-422.5" font-family="Helvetica,sans-Serif" font-size="10.00">ds3231_interface_debug</text>
<text xml:space="preserve" text-anchor="middle" x="199.5" y="-410.5" font-family="Helvetica,sans-Serif" font-size="10.00">_print</text>
</a>
</g>
</g>
<!-- Node1&#45;&gt;Node5 -->
<g id="edge4_Node000001_Node000005" class="edge">
<title>Node1&#45;&gt;Node5</title>
<g id="a_edge4_Node000001_Node000005"><a xlink:title=" ">
<path fill="none" stroke="#63b8ff" d="M52.46,-279.42C62.31,-303.26 89.66,-362.27 130.75,-395 132.04,-396.03 133.37,-397.01 134.74,-397.96"/>
<polygon fill="#63b8ff" stroke="#63b8ff" points="132.59,-400.75 142.96,-402.9 136.19,-394.75 132.59,-400.75"/>
</a>
</g>
</g>
<!-- Node6 -->
<g id="Node000006" class="node">
<title>Node6</title>
<g id="a_Node000006"><a xlink:href="group__ds3231__interface__driver.html#ga5f66d3dfa38b1dfa607cb447c6cca9fb" target="_top" xlink:title="interface delay ms">
<polygon fill="white" stroke="#666666" points="268.25,-386 130.75,-386 130.75,-366 268.25,-366 268.25,-386"/>
<text xml:space="preserve" text-anchor="middle" x="199.5" y="-372.5" font-family="Helvetica,sans-Serif" font-size="10.00">ds3231_interface_delay_ms</text>
</a>
</g>
</g>
<!-- Node1&#45;&gt;Node6 -->
<g id="edge5_Node000001_Node000006" class="edge">
<title>Node1&#45;&gt;Node6</title>
<g id="a_edge5_Node000001_Node000006"><a xlink:title=" ">
<path fill="none" stroke="#63b8ff" d="M55.2,-279.41C67.85,-297.88 96.77,-336.36 130.75,-357 133.22,-358.5 135.8,-359.88 138.47,-361.16"/>
<polygon fill="#63b8ff" stroke="#63b8ff" points="137.08,-364.37 147.66,-364.99 139.78,-357.91 137.08,-364.37"/>
</a>
</g>
</g>
<!-- Node7 -->
<g id="Node000007" class="node">
<title>Node7</title>
<g id="a_Node000007"><a xlink:href="group__ds3231__interface__driver.html#ga47398c613ac3a7b942a41548f288df97" target="_top" xlink:title="interface iic bus deinit">
<polygon fill="white" stroke="#666666" points="252.12,-348 146.88,-348 146.88,-316 252.12,-316 252.12,-348"/>
<text xml:space="preserve" text-anchor="start" x="154.88" y="-334.5" font-family="Helvetica,sans-Serif" font-size="10.00">ds3231_interface_iic</text>
<text xml:space="preserve" text-anchor="middle" x="199.5" y="-322.5" font-family="Helvetica,sans-Serif" font-size="10.00">_deinit</text>
</a>
</g>
</g>
<!-- Node1&#45;&gt;Node7 -->
<g id="edge6_Node000001_Node000007" class="edge">
<title>Node1&#45;&gt;Node7</title>
<g id="a_edge6_Node000001_Node000007"><a xlink:title=" ">
<path fill="none" stroke="#63b8ff" d="M69.85,-279.47C86.35,-287.38 109.8,-298.32 130.75,-307 134.33,-308.48 138.04,-309.98 141.79,-311.45"/>
<polygon fill="#63b8ff" stroke="#63b8ff" points="140.39,-314.66 150.98,-315 142.91,-308.13 140.39,-314.66"/>
</a>
</g>
</g>
<!-- Node8 -->
<g id="Node000008" class="node">
<title>Node8</title>
<g id="a_Node000008"><a xlink:href="group__ds3231__interface__driver.html#ga40312ed827d6f51b6552290da96fb6b3" target="_top" xlink:title="interface iic bus init">
<polygon fill="white" stroke="#666666" points="261.12,-298 137.88,-298 137.88,-278 261.12,-278 261.12,-298"/>
<text xml:space="preserve" text-anchor="middle" x="199.5" y="-284.5" font-family="Helvetica,sans-Serif" font-size="10.00">ds3231_interface_iic_init</text>
</a>
</g>
</g>
<!-- Node1&#45;&gt;Node8 -->
<g id="edge7_Node000001_Node000008" class="edge">
<title>Node1&#45;&gt;Node8</title>
<g id="a_edge7_Node000001_Node000008"><a xlink:title=" ">
<path fill="none" stroke="#63b8ff" d="M95.05,-274.91C104.91,-276.16 115.54,-277.5 126.1,-278.84"/>
<polygon fill="#63b8ff" stroke="#63b8ff" points="125.62,-282.3 135.98,-280.09 126.5,-275.36 125.62,-282.3"/>
</a>
</g>
</g>
<!-- Node9 -->
<g id="Node000009" class="node">
<title>Node9</title>
<g id="a_Node000009"><a xlink:href="group__ds3231__interface__driver.html#gae5d042241e9b52df7c0ffd76da919c39" target="_top" xlink:title="interface iic bus read">
<polygon fill="white" stroke="#666666" points="264.12,-260 134.88,-260 134.88,-240 264.12,-240 264.12,-260"/>
<text xml:space="preserve" text-anchor="middle" x="199.5" y="-246.5" font-family="Helvetica,sans-Serif" font-size="10.00">ds3231_interface_iic_read</text>
</a>
</g>
</g>
<!-- Node1&#45;&gt;Node9 -->
<g id="edge8_Node000001_Node000009" class="edge">
<title>Node1&#45;&gt;Node9</title>
<g id="a_edge8_Node000001_Node000009"><a xlink:title=" ">
<path fill="none" stroke="#63b8ff" d="M95.05,-263.09C104.02,-261.96 113.63,-260.74 123.24,-259.53"/>
<polygon fill="#63b8ff" stroke="#63b8ff" points="123.5,-263.02 132.98,-258.29 122.62,-256.08 123.5,-263.02"/>
</a>
</g>
</g>
<!-- Node10 -->
<g id="Node000010" class="node">
<title>Node10</title>
<g id="a_Node000010"><a xlink:href="group__ds3231__interface__driver.html#ga100951964c5772b71987fe5f29adb9ba" target="_top" xlink:title="interface iic bus write">
<polygon fill="white" stroke="#666666" points="252.12,-222 146.88,-222 146.88,-190 252.12,-190 252.12,-222"/>
<text xml:space="preserve" text-anchor="start" x="154.88" y="-208.5" font-family="Helvetica,sans-Serif" font-size="10.00">ds3231_interface_iic</text>
<text xml:space="preserve" text-anchor="middle" x="199.5" y="-196.5" font-family="Helvetica,sans-Serif" font-size="10.00">_write</text>
</a>
</g>
</g>
<!-- Node1&#45;&gt;Node10 -->
<g id="edge9_Node000001_Node000010" class="edge">
<title>Node1&#45;&gt;Node10</title>
<g id="a_edge9_Node000001_Node000010"><a xlink:title=" ">
<path fill="none" stroke="#63b8ff" d="M69.85,-258.53C86.35,-250.62 109.8,-239.68 130.75,-231 134.33,-229.52 138.04,-228.02 141.79,-226.55"/>
<polygon fill="#63b8ff" stroke="#63b8ff" points="142.91,-229.87 150.98,-223 140.39,-223.34 142.91,-229.87"/>
</a>
</g>
</g>
<!-- Node11 -->
<g id="Node000011" class="node">
<title>Node11</title>
<g id="a_Node000011"><a xlink:href="group__ds3231__advance__driver.html#gad06f018ac2a097830ccf6b60d6fab00d" target="_top" xlink:title="enable or disable the 32KHz output">
<polygon fill="white" stroke="#666666" points="264.5,-172 134.5,-172 134.5,-152 264.5,-152 264.5,-172"/>
<text xml:space="preserve" text-anchor="middle" x="199.5" y="-158.5" font-family="Helvetica,sans-Serif" font-size="10.00">ds3231_set_32khz_output</text>
</a>
</g>
</g>
<!-- Node1&#45;&gt;Node11 -->
<g id="edge10_Node000001_Node000011" class="edge">
<title>Node1&#45;&gt;Node11</title>
<g id="a_edge10_Node000001_Node000011"><a xlink:title=" ">
<path fill="none" stroke="#63b8ff" d="M55.2,-258.59C67.85,-240.12 96.77,-201.64 130.75,-181 133.22,-179.5 135.8,-178.12 138.47,-176.84"/>
<polygon fill="#63b8ff" stroke="#63b8ff" points="139.78,-180.09 147.66,-173.01 137.08,-173.63 139.78,-180.09"/>
</a>
</g>
</g>
<!-- Node12 -->
<g id="Node000012" class="node">
<title>Node12</title>
<g id="a_Node000012"><a xlink:href="group__ds3231__advance__driver.html#ga49a0b05ec4e492162dc9cf565e807c48" target="_top" xlink:title="set the chip aging offset">
<polygon fill="white" stroke="#666666" points="261.5,-134 137.5,-134 137.5,-114 261.5,-114 261.5,-134"/>
<text xml:space="preserve" text-anchor="middle" x="199.5" y="-120.5" font-family="Helvetica,sans-Serif" font-size="10.00">ds3231_set_aging_offset</text>
</a>
</g>
</g>
<!-- Node1&#45;&gt;Node12 -->
<g id="edge11_Node000001_Node000012" class="edge">
<title>Node1&#45;&gt;Node12</title>
<g id="a_edge11_Node000001_Node000012"><a xlink:title=" ">
<path fill="none" stroke="#63b8ff" d="M52.14,-258.71C61.5,-234.62 88.17,-174.21 130.75,-143 132.52,-141.7 134.38,-140.49 136.31,-139.36"/>
<polygon fill="#63b8ff" stroke="#63b8ff" points="137.6,-142.62 145.01,-135.05 134.5,-136.35 137.6,-142.62"/>
</a>
</g>
</g>
<!-- Node13 -->
<g id="Node000013" class="node">
<title>Node13</title>
<g id="a_Node000013"><a xlink:href="group__ds3231__base__driver.html#ga019899f8bed7d2c8afd6f08634e57e68" target="_top" xlink:title="enable or disable the oscillator">
<polygon fill="white" stroke="#666666" points="254.75,-96 144.25,-96 144.25,-76 254.75,-76 254.75,-96"/>
<text xml:space="preserve" text-anchor="middle" x="199.5" y="-82.5" font-family="Helvetica,sans-Serif" font-size="10.00">ds3231_set_oscillator</text>
</a>
</g>
</g>
<!-- Node1&#45;&gt;Node13 -->
<g id="edge12_Node000001_Node000013" class="edge">
<title>Node1&#45;&gt;Node13</title>
<g id="a_edge12_Node000001_Node000013"><a xlink:title=" ">
<path fill="none" stroke="#63b8ff" d="M50.49,-258.73C56.98,-229.86 79.36,-147.36 130.75,-105 132.05,-103.93 133.4,-102.92 134.8,-101.97"/>
<polygon fill="#63b8ff" stroke="#63b8ff" points="136.27,-105.16 143.28,-97.22 132.84,-99.05 136.27,-105.16"/>
</a>
</g>
</g>
<!-- Node14 -->
<g id="Node000014" class="node">
<title>Node14</title>
<g id="a_Node000014"><a xlink:href="group__ds3231__advance__driver.html#ga9b19cc6345dc16d4f988518e17976368" target="_top" xlink:title="set the chip pin function">
<polygon fill="white" stroke="#666666" points="241.62,-58 157.38,-58 157.38,-38 241.62,-38 241.62,-58"/>
<text xml:space="preserve" text-anchor="middle" x="199.5" y="-44.5" font-family="Helvetica,sans-Serif" font-size="10.00">ds3231_set_pin</text>
</a>
</g>
</g>
<!-- Node1&#45;&gt;Node14 -->
<g id="edge13_Node000001_Node000014" class="edge">
<title>Node1&#45;&gt;Node14</title>
<g id="a_edge13_Node000001_Node000014"><a xlink:title=" ">
<path fill="none" stroke="#63b8ff" d="M49.42,-258.83C53.34,-225.86 70.27,-120.96 130.75,-67 135.36,-62.88 140.8,-59.65 146.56,-57.12"/>
<polygon fill="#63b8ff" stroke="#63b8ff" points="147.53,-60.49 155.73,-53.78 145.14,-53.91 147.53,-60.49"/>
</a>
</g>
</g>
<!-- Node15 -->
<g id="Node000015" class="node">
<title>Node15</title>
<g id="a_Node000015"><a xlink:href="group__ds3231__advance__driver.html#gadeaab17893161895a8ee84f11716c5c0" target="_top" xlink:title="enable or disable the square wave output">
<polygon fill="white" stroke="#666666" points="264.12,-20 134.88,-20 134.88,0 264.12,0 264.12,-20"/>
<text xml:space="preserve" text-anchor="middle" x="199.5" y="-6.5" font-family="Helvetica,sans-Serif" font-size="10.00">ds3231_set_square_wave</text>
</a>
</g>
</g>
<!-- Node1&#45;&gt;Node15 -->
<g id="edge14_Node000001_Node000015" class="edge">
<title>Node1&#45;&gt;Node15</title>
<g id="a_edge14_Node000001_Node000015"><a xlink:title=" ">
<path fill="none" stroke="#63b8ff" d="M48.69,-258.56C50.39,-221.44 61.25,-94.63 130.75,-29 131.66,-28.14 132.61,-27.32 133.58,-26.53"/>
<polygon fill="#63b8ff" stroke="#63b8ff" points="135.31,-29.58 141.84,-21.24 131.53,-23.69 135.31,-29.58"/>
</a>
</g>
</g>
</g>
</svg>
