<?xml version="1.0" encoding="UTF-8" standalone="no"?>
<!DOCTYPE svg PUBLIC "-//W3C//DTD SVG 1.1//EN"
 "http://www.w3.org/Graphics/SVG/1.1/DTD/svg11.dtd">
<!-- Generated by graphviz version 13.1.0 (20250701.0955)
 -->
<!-- Title: ds3231 driver function Pages: 1 -->
<svg width="271pt" height="390pt"
 viewBox="0.00 0.00 271.00 390.00" xmlns="http://www.w3.org/2000/svg" xmlns:xlink="http://www.w3.org/1999/xlink">
<g id="graph0" class="graph" transform="scale(1 1) rotate(0) translate(4 386)">
<title>ds3231 driver function</title>
<!-- Node4 -->
<g id="Node000004" class="node">
<title>Node4</title>
<g id="a_Node000004"><a xlink:href="group__ds3231__advance__driver.html" target="_top" xlink:title="ds3231 advance driver modules">
<polygon fill="white" stroke="#666666" points="262.62,-382 148.38,-382 148.38,-350 262.62,-350 262.62,-382"/>
<text xml:space="preserve" text-anchor="start" x="156.38" y="-368.5" font-family="Helvetica,sans-Serif" font-size="10.00">ds3231 advance driver</text>
<text xml:space="preserve" text-anchor="middle" x="205.5" y="-356.5" font-family="Helvetica,sans-Serif" font-size="10.00"> function</text>
</a>
</g>
</g>
<!-- Node5 -->
<g id="Node000005" class="node">
<title>Node5</title>
<g id="a_Node000005"><a xlink:href="group__ds3231__alarm__driver.html" target="_top" xlink:title="ds3231 alarm driver modules">
<polygon fill="white" stroke="#666666" points="256.25,-332 154.75,-332 154.75,-300 256.25,-300 256.25,-332"/>
<text xml:space="preserve" text-anchor="start" x="162.75" y="-318.5" font-family="Helvetica,sans-Serif" font-size="10.00">ds3231 alarm driver</text>
<text xml:space="preserve" text-anchor="middle" x="205.5" y="-306.5" font-family="Helvetica,sans-Serif" font-size="10.00"> function</text>
</a>
</g>
</g>
<!-- Node3 -->
<g id="Node000003" class="node">
<title>Node3</title>
<g id="a_Node000003"><a xlink:href="group__ds3231__base__driver.html" target="_top" xlink:title="ds3231 base driver modules">
<polygon fill="white" stroke="#666666" points="254.75,-282 156.25,-282 156.25,-250 254.75,-250 254.75,-282"/>
<text xml:space="preserve" text-anchor="start" x="164.25" y="-268.5" font-family="Helvetica,sans-Serif" font-size="10.00">ds3231 base driver</text>
<text xml:space="preserve" text-anchor="middle" x="205.5" y="-256.5" font-family="Helvetica,sans-Serif" font-size="10.00"> function</text>
</a>
</g>
</g>
<!-- Node1 -->
<g id="Node000001" class="node">
<title>Node1</title>
<g id="a_Node000001"><a xlink:title="ds3231 driver modules">
<polygon fill="#999999" stroke="#666666" points="112,-201 0,-201 0,-181 112,-181 112,-201"/>
<text xml:space="preserve" text-anchor="middle" x="56" y="-187.5" font-family="Helvetica,sans-Serif" font-size="10.00">ds3231 driver function</text>
</a>
</g>
</g>
<!-- Node1&#45;&gt;Node4 -->
<g id="edge3" class="edge">
<title>Node1&#45;&gt;Node4</title>
<path fill="none" stroke="black" d="M64.84,-211.83C77.73,-243.59 106.21,-304.27 148,-341 151.63,-344.19 155.72,-347.03 160.01,-349.54"/>
<polygon fill="black" stroke="black" points="68.12,-210.63 61.22,-202.6 61.61,-213.19 68.12,-210.63"/>
</g>
<!-- Node1&#45;&gt;Node5 -->
<g id="edge4" class="edge">
<title>Node1&#45;&gt;Node5</title>
<path fill="none" stroke="black" d="M70.71,-210.4C87.04,-232.35 116.13,-268.03 148,-291 152.35,-294.14 157.16,-297 162.08,-299.58"/>
<polygon fill="black" stroke="black" points="73.75,-208.63 65.03,-202.6 68.09,-212.74 73.75,-208.63"/>
</g>
<!-- Node1&#45;&gt;Node3 -->
<g id="edge2" class="edge">
<title>Node1&#45;&gt;Node3</title>
<path fill="none" stroke="black" d="M84.65,-207C102.52,-217.14 126.39,-230.31 148,-241 153.86,-243.9 160.14,-246.84 166.3,-249.63"/>
<polygon fill="black" stroke="black" points="86.62,-204.09 76.2,-202.17 83.15,-210.17 86.62,-204.09"/>
</g>
<!-- Node8 -->
<g id="Node000008" class="node">
<title>Node8</title>
<g id="a_Node000008"><a xlink:href="group__ds3231__example__driver.html" target="_top" xlink:title="ds3231 example driver modules">
<polygon fill="white" stroke="#666666" points="262.62,-232 148.38,-232 148.38,-200 262.62,-200 262.62,-232"/>
<text xml:space="preserve" text-anchor="start" x="156.38" y="-218.5" font-family="Helvetica,sans-Serif" font-size="10.00">ds3231 example driver</text>
<text xml:space="preserve" text-anchor="middle" x="205.5" y="-206.5" font-family="Helvetica,sans-Serif" font-size="10.00"> function</text>
</a>
</g>
</g>
<!-- Node1&#45;&gt;Node8 -->
<g id="edge7" class="edge">
<title>Node1&#45;&gt;Node8</title>
<path fill="none" stroke="black" d="M123.53,-202.28C131.83,-203.68 140.24,-205.11 148.36,-206.48"/>
<polygon fill="black" stroke="black" points="124.28,-198.85 113.84,-200.63 123.11,-205.76 124.28,-198.85"/>
</g>
<!-- Node6 -->
<g id="Node000006" class="node">
<title>Node6</title>
<g id="a_Node000006"><a xlink:href="group__ds3231__extern__driver.html" target="_top" xlink:title="ds3231 extern driver modules">
<polygon fill="white" stroke="#666666" points="257.75,-182 153.25,-182 153.25,-150 257.75,-150 257.75,-182"/>
<text xml:space="preserve" text-anchor="start" x="161.25" y="-168.5" font-family="Helvetica,sans-Serif" font-size="10.00">ds3231 extern driver</text>
<text xml:space="preserve" text-anchor="middle" x="205.5" y="-156.5" font-family="Helvetica,sans-Serif" font-size="10.00"> function</text>
</a>
</g>
</g>
<!-- Node1&#45;&gt;Node6 -->
<g id="edge5" class="edge">
<title>Node1&#45;&gt;Node6</title>
<path fill="none" stroke="black" d="M123.5,-179.73C133.48,-178.04 143.63,-176.32 153.23,-174.69"/>
<polygon fill="black" stroke="black" points="123.11,-176.24 113.84,-181.37 124.28,-183.15 123.11,-176.24"/>
</g>
<!-- Node7 -->
<g id="Node000007" class="node">
<title>Node7</title>
<g id="a_Node000007"><a xlink:href="group__ds3231__interface__driver.html" target="_top" xlink:title="ds3231 interface driver modules">
<polygon fill="white" stroke="#666666" points="263,-132 148,-132 148,-100 263,-100 263,-132"/>
<text xml:space="preserve" text-anchor="start" x="156" y="-118.5" font-family="Helvetica,sans-Serif" font-size="10.00">ds3231 interface driver</text>
<text xml:space="preserve" text-anchor="middle" x="205.5" y="-106.5" font-family="Helvetica,sans-Serif" font-size="10.00"> function</text>
</a>
</g>
</g>
<!-- Node1&#45;&gt;Node7 -->
<g id="edge6" class="edge">
<title>Node1&#45;&gt;Node7</title>
<path fill="none" stroke="black" d="M84.65,-175C102.52,-164.86 126.39,-151.69 148,-141 153.86,-138.1 160.14,-135.16 166.3,-132.37"/>
<polygon fill="black" stroke="black" points="83.15,-171.83 76.2,-179.83 86.62,-177.91 83.15,-171.83"/>
</g>
<!-- Node2 -->
<g id="Node000002" class="node">
<title>Node2</title>
<g id="a_Node000002"><a xlink:href="group__ds3231__link__driver.html" target="_top" xlink:title="ds3231 link driver modules">
<polygon fill="white" stroke="#666666" points="251.75,-82 159.25,-82 159.25,-50 251.75,-50 251.75,-82"/>
<text xml:space="preserve" text-anchor="start" x="167.25" y="-68.5" font-family="Helvetica,sans-Serif" font-size="10.00">ds3231 link driver</text>
<text xml:space="preserve" text-anchor="middle" x="205.5" y="-56.5" font-family="Helvetica,sans-Serif" font-size="10.00"> function</text>
</a>
</g>
</g>
<!-- Node1&#45;&gt;Node2 -->
<g id="edge1" class="edge">
<title>Node1&#45;&gt;Node2</title>
<path fill="none" stroke="black" d="M70.71,-171.6C87.04,-149.65 116.13,-113.97 148,-91 152.35,-87.86 157.16,-85 162.08,-82.42"/>
<polygon fill="black" stroke="black" points="68.09,-169.26 65.03,-179.4 73.75,-173.37 68.09,-169.26"/>
</g>
<!-- Node9 -->
<g id="Node000009" class="node">
<title>Node9</title>
<g id="a_Node000009"><a xlink:href="group__ds3231__test__driver.html" target="_top" xlink:title="ds3231 test driver modules">
<polygon fill="white" stroke="#666666" points="252.5,-32 158.5,-32 158.5,0 252.5,0 252.5,-32"/>
<text xml:space="preserve" text-anchor="start" x="166.5" y="-18.5" font-family="Helvetica,sans-Serif" font-size="10.00">ds3231 test driver</text>
<text xml:space="preserve" text-anchor="middle" x="205.5" y="-6.5" font-family="Helvetica,sans-Serif" font-size="10.00"> function</text>
</a>
</g>
</g>
<!-- Node1&#45;&gt;Node9 -->
<g id="edge8" class="edge">
<title>Node1&#45;&gt;Node9</title>
<path fill="none" stroke="black" d="M64.84,-170.17C77.73,-138.41 106.21,-77.73 148,-41 151.63,-37.81 155.72,-34.97 160.01,-32.46"/>
<polygon fill="black" stroke="black" points="61.61,-168.81 61.22,-179.4 68.12,-171.37 61.61,-168.81"/>
</g>
</g>
</svg>
