<?xml version="1.0" encoding="UTF-8" standalone="no"?>
<!DOCTYPE svg PUBLIC "-//W3C//DTD SVG 1.1//EN"
 "http://www.w3.org/Graphics/SVG/1.1/DTD/svg11.dtd">
<!-- Generated by graphviz version 13.1.0 (20250701.0955)
 -->
<!-- Title: ds3231_output_init Pages: 1 -->
<svg width="437pt" height="570pt"
 viewBox="0.00 0.00 437.00 570.00" xmlns="http://www.w3.org/2000/svg" xmlns:xlink="http://www.w3.org/1999/xlink">
<g id="graph0" class="graph" transform="scale(1 1) rotate(0) translate(4 566)">
<title>ds3231_output_init</title>
<!-- Node1 -->
<g id="Node000001" class="node">
<title>Node1</title>
<g id="a_Node000001"><a xlink:title="output example init">
<polygon fill="#999999" stroke="#666666" points="97.75,-291 0,-291 0,-271 97.75,-271 97.75,-291"/>
<text xml:space="preserve" text-anchor="middle" x="48.88" y="-277.5" font-family="Helvetica,sans-Serif" font-size="10.00">ds3231_output_init</text>
</a>
</g>
</g>
<!-- Node2 -->
<g id="Node000002" class="node">
<title>Node2</title>
<g id="a_Node000002"><a xlink:href="group__ds3231__advance__driver.html#gacf71c847b348df46bd1fcd2a122d1855" target="_top" xlink:title="convert a aging offset value to a register raw data">
<polygon fill="white" stroke="#666666" points="255.12,-562 149.88,-562 149.88,-530 255.12,-530 255.12,-562"/>
<text xml:space="preserve" text-anchor="start" x="157.88" y="-548.5" font-family="Helvetica,sans-Serif" font-size="10.00">ds3231_aging_offset</text>
<text xml:space="preserve" text-anchor="middle" x="202.5" y="-536.5" font-family="Helvetica,sans-Serif" font-size="10.00">_convert_to_register</text>
</a>
</g>
</g>
<!-- Node1&#45;&gt;Node2 -->
<g id="edge1_Node000001_Node000002" class="edge">
<title>Node1&#45;&gt;Node2</title>
<g id="a_edge1_Node000001_Node000002"><a xlink:title=" ">
<path fill="none" stroke="#63b8ff" d="M50.45,-291.26C53.03,-327.74 66.61,-452.69 133.75,-521 135.75,-523.03 137.93,-524.9 140.24,-526.62"/>
<polygon fill="#63b8ff" stroke="#63b8ff" points="138.09,-529.41 148.42,-531.73 141.79,-523.47 138.09,-529.41"/>
</a>
</g>
</g>
<!-- Node3 -->
<g id="Node000003" class="node">
<title>Node3</title>
<g id="a_Node000003"><a xlink:href="group__ds3231__base__driver.html#gadd1988301d419380a0d6bdf769233ca0" target="_top" xlink:title="close the chip">
<polygon fill="white" stroke="#666666" points="240.5,-512 164.5,-512 164.5,-492 240.5,-492 240.5,-512"/>
<text xml:space="preserve" text-anchor="middle" x="202.5" y="-498.5" font-family="Helvetica,sans-Serif" font-size="10.00">ds3231_deinit</text>
</a>
</g>
</g>
<!-- Node1&#45;&gt;Node3 -->
<g id="edge2_Node000001_Node000003" class="edge">
<title>Node1&#45;&gt;Node3</title>
<g id="a_edge2_Node000001_Node000003"><a xlink:title=" ">
<path fill="none" stroke="#63b8ff" d="M51,-291.17C55.19,-324.16 72.94,-429.09 133.75,-483 139.4,-488.01 146.27,-491.71 153.45,-494.43"/>
<polygon fill="#63b8ff" stroke="#63b8ff" points="152.03,-497.66 162.62,-497.32 154.13,-490.98 152.03,-497.66"/>
</a>
</g>
</g>
<!-- Node4 -->
<g id="Node000004" class="node">
<title>Node4</title>
<g id="a_Node000004"><a xlink:href="group__ds3231__base__driver.html#gaaba87dc05cadec0df3dc0b914596f52f" target="_top" xlink:title="initialize the chip">
<polygon fill="white" stroke="#666666" points="235.25,-474 169.75,-474 169.75,-454 235.25,-454 235.25,-474"/>
<text xml:space="preserve" text-anchor="middle" x="202.5" y="-460.5" font-family="Helvetica,sans-Serif" font-size="10.00">ds3231_init</text>
</a>
</g>
</g>
<!-- Node1&#45;&gt;Node4 -->
<g id="edge3_Node000001_Node000004" class="edge">
<title>Node1&#45;&gt;Node4</title>
<g id="a_edge3_Node000001_Node000004"><a xlink:title=" ">
<path fill="none" stroke="#63b8ff" d="M52.44,-291.2C59.96,-319.11 84.64,-397.54 133.75,-440 140.86,-446.15 149.66,-450.76 158.53,-454.2"/>
<polygon fill="#63b8ff" stroke="#63b8ff" points="157.26,-457.46 167.85,-457.36 159.5,-450.84 157.26,-457.46"/>
</a>
</g>
</g>
<!-- Node5 -->
<g id="Node000005" class="node">
<title>Node5</title>
<g id="a_Node000005"><a xlink:href="group__ds3231__interface__driver.html#gaa6eb4e12fee76239c8c2a30805596d0b" target="_top" xlink:title="interface print format data">
<polygon fill="white" stroke="#666666" points="429,-313 307.25,-313 307.25,-281 429,-281 429,-313"/>
<text xml:space="preserve" text-anchor="start" x="315.25" y="-299.5" font-family="Helvetica,sans-Serif" font-size="10.00">ds3231_interface_debug</text>
<text xml:space="preserve" text-anchor="middle" x="368.12" y="-287.5" font-family="Helvetica,sans-Serif" font-size="10.00">_print</text>
</a>
</g>
</g>
<!-- Node1&#45;&gt;Node5 -->
<g id="edge4_Node000001_Node000005" class="edge">
<title>Node1&#45;&gt;Node5</title>
<g id="a_edge4_Node000001_Node000005"><a xlink:title=" ">
<path fill="none" stroke="#63b8ff" d="M53,-291.35C61.29,-316.71 86.49,-381.69 133.75,-407 187.62,-435.85 215.62,-432.31 271.25,-407 308.91,-389.87 337.54,-349.82 353.33,-323.08"/>
<polygon fill="#63b8ff" stroke="#63b8ff" points="356.29,-324.95 358.19,-314.53 350.21,-321.5 356.29,-324.95"/>
</a>
</g>
</g>
<!-- Node6 -->
<g id="Node000006" class="node">
<title>Node6</title>
<g id="a_Node000006"><a xlink:href="group__ds3231__interface__driver.html#ga5f66d3dfa38b1dfa607cb447c6cca9fb" target="_top" xlink:title="interface delay ms">
<polygon fill="white" stroke="#666666" points="271.25,-398 133.75,-398 133.75,-378 271.25,-378 271.25,-398"/>
<text xml:space="preserve" text-anchor="middle" x="202.5" y="-384.5" font-family="Helvetica,sans-Serif" font-size="10.00">ds3231_interface_delay_ms</text>
</a>
</g>
</g>
<!-- Node1&#45;&gt;Node6 -->
<g id="edge5_Node000001_Node000006" class="edge">
<title>Node1&#45;&gt;Node6</title>
<g id="a_edge5_Node000001_Node000006"><a xlink:title=" ">
<path fill="none" stroke="#63b8ff" d="M56.87,-291.41C69.83,-309.87 99.38,-348.33 133.75,-369 136.22,-370.49 138.82,-371.86 141.49,-373.13"/>
<polygon fill="#63b8ff" stroke="#63b8ff" points="140.11,-376.35 150.68,-376.95 142.79,-369.88 140.11,-376.35"/>
</a>
</g>
</g>
<!-- Node7 -->
<g id="Node000007" class="node">
<title>Node7</title>
<g id="a_Node000007"><a xlink:href="group__ds3231__interface__driver.html#ga47398c613ac3a7b942a41548f288df97" target="_top" xlink:title="interface iic bus deinit">
<polygon fill="white" stroke="#666666" points="255.12,-360 149.88,-360 149.88,-328 255.12,-328 255.12,-360"/>
<text xml:space="preserve" text-anchor="start" x="157.88" y="-346.5" font-family="Helvetica,sans-Serif" font-size="10.00">ds3231_interface_iic</text>
<text xml:space="preserve" text-anchor="middle" x="202.5" y="-334.5" font-family="Helvetica,sans-Serif" font-size="10.00">_deinit</text>
</a>
</g>
</g>
<!-- Node1&#45;&gt;Node7 -->
<g id="edge6_Node000001_Node000007" class="edge">
<title>Node1&#45;&gt;Node7</title>
<g id="a_edge6_Node000001_Node000007"><a xlink:title=" ">
<path fill="none" stroke="#63b8ff" d="M71.76,-291.44C88.58,-299.33 112.45,-310.26 133.75,-319 137.51,-320.54 141.4,-322.1 145.33,-323.63"/>
<polygon fill="#63b8ff" stroke="#63b8ff" points="143.77,-326.78 154.36,-327.09 146.28,-320.24 143.77,-326.78"/>
</a>
</g>
</g>
<!-- Node8 -->
<g id="Node000008" class="node">
<title>Node8</title>
<g id="a_Node000008"><a xlink:href="group__ds3231__interface__driver.html#ga40312ed827d6f51b6552290da96fb6b3" target="_top" xlink:title="interface iic bus init">
<polygon fill="white" stroke="#666666" points="264.12,-310 140.88,-310 140.88,-290 264.12,-290 264.12,-310"/>
<text xml:space="preserve" text-anchor="middle" x="202.5" y="-296.5" font-family="Helvetica,sans-Serif" font-size="10.00">ds3231_interface_iic_init</text>
</a>
</g>
</g>
<!-- Node1&#45;&gt;Node8 -->
<g id="edge7_Node000001_Node000008" class="edge">
<title>Node1&#45;&gt;Node8</title>
<g id="a_edge7_Node000001_Node000008"><a xlink:title=" ">
<path fill="none" stroke="#63b8ff" d="M97.85,-287.01C107.79,-288.26 118.47,-289.6 129.06,-290.92"/>
<polygon fill="#63b8ff" stroke="#63b8ff" points="128.62,-294.4 138.98,-292.17 129.49,-287.45 128.62,-294.4"/>
</a>
</g>
</g>
<!-- Node9 -->
<g id="Node000009" class="node">
<title>Node9</title>
<g id="a_Node000009"><a xlink:href="group__ds3231__interface__driver.html#gae5d042241e9b52df7c0ffd76da919c39" target="_top" xlink:title="interface iic bus read">
<polygon fill="white" stroke="#666666" points="267.12,-272 137.88,-272 137.88,-252 267.12,-252 267.12,-272"/>
<text xml:space="preserve" text-anchor="middle" x="202.5" y="-258.5" font-family="Helvetica,sans-Serif" font-size="10.00">ds3231_interface_iic_read</text>
</a>
</g>
</g>
<!-- Node1&#45;&gt;Node9 -->
<g id="edge8_Node000001_Node000009" class="edge">
<title>Node1&#45;&gt;Node9</title>
<g id="a_edge8_Node000001_Node000009"><a xlink:title=" ">
<path fill="none" stroke="#63b8ff" d="M97.85,-274.99C106.89,-273.86 116.55,-272.65 126.19,-271.44"/>
<polygon fill="#63b8ff" stroke="#63b8ff" points="126.48,-274.93 135.97,-270.21 125.61,-267.98 126.48,-274.93"/>
</a>
</g>
</g>
<!-- Node10 -->
<g id="Node000010" class="node">
<title>Node10</title>
<g id="a_Node000010"><a xlink:href="group__ds3231__interface__driver.html#ga100951964c5772b71987fe5f29adb9ba" target="_top" xlink:title="interface iic bus write">
<polygon fill="white" stroke="#666666" points="255.12,-234 149.88,-234 149.88,-202 255.12,-202 255.12,-234"/>
<text xml:space="preserve" text-anchor="start" x="157.88" y="-220.5" font-family="Helvetica,sans-Serif" font-size="10.00">ds3231_interface_iic</text>
<text xml:space="preserve" text-anchor="middle" x="202.5" y="-208.5" font-family="Helvetica,sans-Serif" font-size="10.00">_write</text>
</a>
</g>
</g>
<!-- Node1&#45;&gt;Node10 -->
<g id="edge9_Node000001_Node000010" class="edge">
<title>Node1&#45;&gt;Node10</title>
<g id="a_edge9_Node000001_Node000010"><a xlink:title=" ">
<path fill="none" stroke="#63b8ff" d="M71.76,-270.56C88.58,-262.67 112.45,-251.74 133.75,-243 137.51,-241.46 141.4,-239.9 145.33,-238.37"/>
<polygon fill="#63b8ff" stroke="#63b8ff" points="146.28,-241.76 154.36,-234.91 143.77,-235.22 146.28,-241.76"/>
</a>
</g>
</g>
<!-- Node11 -->
<g id="Node000011" class="node">
<title>Node11</title>
<g id="a_Node000011"><a xlink:href="group__ds3231__interface__driver.html#gac9d5e54b603ed63e2e7505468d544dae" target="_top" xlink:title="interface receive callback">
<polygon fill="white" stroke="#666666" points="266,-184 139,-184 139,-152 266,-152 266,-184"/>
<text xml:space="preserve" text-anchor="start" x="147" y="-170.5" font-family="Helvetica,sans-Serif" font-size="10.00">ds3231_interface_receive</text>
<text xml:space="preserve" text-anchor="middle" x="202.5" y="-158.5" font-family="Helvetica,sans-Serif" font-size="10.00">_callback</text>
</a>
</g>
</g>
<!-- Node1&#45;&gt;Node11 -->
<g id="edge10_Node000001_Node000011" class="edge">
<title>Node1&#45;&gt;Node11</title>
<g id="a_edge10_Node000001_Node000011"><a xlink:title=" ">
<path fill="none" stroke="#63b8ff" d="M57.25,-270.57C70.58,-252.43 100.42,-214.91 133.75,-193 135.56,-191.81 137.43,-190.67 139.35,-189.58"/>
<polygon fill="#63b8ff" stroke="#63b8ff" points="140.62,-192.86 147.91,-185.17 137.42,-186.63 140.62,-192.86"/>
</a>
</g>
</g>
<!-- Node12 -->
<g id="Node000012" class="node">
<title>Node12</title>
<g id="a_Node000012"><a xlink:href="group__ds3231__advance__driver.html#ga49a0b05ec4e492162dc9cf565e807c48" target="_top" xlink:title="set the chip aging offset">
<polygon fill="white" stroke="#666666" points="264.5,-134 140.5,-134 140.5,-114 264.5,-114 264.5,-134"/>
<text xml:space="preserve" text-anchor="middle" x="202.5" y="-120.5" font-family="Helvetica,sans-Serif" font-size="10.00">ds3231_set_aging_offset</text>
</a>
</g>
</g>
<!-- Node1&#45;&gt;Node12 -->
<g id="edge12_Node000001_Node000012" class="edge">
<title>Node1&#45;&gt;Node12</title>
<g id="a_edge12_Node000001_Node000012"><a xlink:title=" ">
<path fill="none" stroke="#63b8ff" d="M53.21,-270.51C61.98,-244.68 88.19,-177.57 133.75,-143 135.47,-141.7 137.27,-140.49 139.13,-139.36"/>
<polygon fill="#63b8ff" stroke="#63b8ff" points="140.24,-142.72 147.56,-135.06 137.06,-136.48 140.24,-142.72"/>
</a>
</g>
</g>
<!-- Node13 -->
<g id="Node000013" class="node">
<title>Node13</title>
<g id="a_Node000013"><a xlink:href="group__ds3231__alarm__driver.html#ga30ef06098c0b1854aa792a28da547576" target="_top" xlink:title="enable or disable the alarm interrupt">
<polygon fill="white" stroke="#666666" points="270.5,-96 134.5,-96 134.5,-76 270.5,-76 270.5,-96"/>
<text xml:space="preserve" text-anchor="middle" x="202.5" y="-82.5" font-family="Helvetica,sans-Serif" font-size="10.00">ds3231_set_alarm_interrupt</text>
</a>
</g>
</g>
<!-- Node1&#45;&gt;Node13 -->
<g id="edge13_Node000001_Node000013" class="edge">
<title>Node1&#45;&gt;Node13</title>
<g id="a_edge13_Node000001_Node000013"><a xlink:title=" ">
<path fill="none" stroke="#63b8ff" d="M51.67,-270.86C57.56,-240.73 79.11,-151 133.75,-105 135.03,-103.92 136.38,-102.9 137.77,-101.94"/>
<polygon fill="#63b8ff" stroke="#63b8ff" points="139.25,-105.12 146.21,-97.14 135.79,-99.04 139.25,-105.12"/>
</a>
</g>
</g>
<!-- Node14 -->
<g id="Node000014" class="node">
<title>Node14</title>
<g id="a_Node000014"><a xlink:href="group__ds3231__base__driver.html#ga019899f8bed7d2c8afd6f08634e57e68" target="_top" xlink:title="enable or disable the oscillator">
<polygon fill="white" stroke="#666666" points="257.75,-58 147.25,-58 147.25,-38 257.75,-38 257.75,-58"/>
<text xml:space="preserve" text-anchor="middle" x="202.5" y="-44.5" font-family="Helvetica,sans-Serif" font-size="10.00">ds3231_set_oscillator</text>
</a>
</g>
</g>
<!-- Node1&#45;&gt;Node14 -->
<g id="edge14_Node000001_Node000014" class="edge">
<title>Node1&#45;&gt;Node14</title>
<g id="a_edge14_Node000001_Node000014"><a xlink:title=" ">
<path fill="none" stroke="#63b8ff" d="M50.74,-270.72C54.21,-236.38 70.12,-124.55 133.75,-67 134.85,-66.01 135.99,-65.07 137.17,-64.18"/>
<polygon fill="#63b8ff" stroke="#63b8ff" points="138.91,-67.22 145.64,-59.04 135.27,-61.24 138.91,-67.22"/>
</a>
</g>
</g>
<!-- Node15 -->
<g id="Node000015" class="node">
<title>Node15</title>
<g id="a_Node000015"><a xlink:href="group__ds3231__advance__driver.html#ga9b19cc6345dc16d4f988518e17976368" target="_top" xlink:title="set the chip pin function">
<polygon fill="white" stroke="#666666" points="244.62,-20 160.38,-20 160.38,0 244.62,0 244.62,-20"/>
<text xml:space="preserve" text-anchor="middle" x="202.5" y="-6.5" font-family="Helvetica,sans-Serif" font-size="10.00">ds3231_set_pin</text>
</a>
</g>
</g>
<!-- Node1&#45;&gt;Node15 -->
<g id="edge15_Node000001_Node000015" class="edge">
<title>Node1&#45;&gt;Node15</title>
<g id="a_edge15_Node000001_Node000015"><a xlink:title=" ">
<path fill="none" stroke="#63b8ff" d="M50.06,-270.58C51.33,-232.33 60.99,-98.36 133.75,-29 138.28,-24.68 143.71,-21.33 149.51,-18.73"/>
<polygon fill="#63b8ff" stroke="#63b8ff" points="150.59,-22.06 158.78,-15.34 148.18,-15.49 150.59,-22.06"/>
</a>
</g>
</g>
<!-- Node11&#45;&gt;Node5 -->
<g id="edge11_Node000011_Node000005" class="edge">
<title>Node11&#45;&gt;Node5</title>
<g id="a_edge11_Node000011_Node000005"><a xlink:title=" ">
<path fill="none" stroke="#63b8ff" d="M255.8,-184.39C261.2,-186.93 266.46,-189.79 271.25,-193 303.04,-214.27 331.63,-248.16 349.16,-271.43"/>
<polygon fill="#63b8ff" stroke="#63b8ff" points="346.32,-273.49 355.07,-279.47 351.96,-269.34 346.32,-273.49"/>
</a>
</g>
</g>
</g>
</svg>
